<?xml version="1.0" encoding="utf-8" standalone="no"?>
<!DOCTYPE svg PUBLIC "-//W3C//DTD SVG 1.1//EN"
  "http://www.w3.org/Graphics/SVG/1.1/DTD/svg11.dtd">
<!-- Created with matplotlib (http://matplotlib.org/) -->
<svg height="395pt" version="1.1" viewBox="0 0 764 395" width="764pt" xmlns="http://www.w3.org/2000/svg" xmlns:xlink="http://www.w3.org/1999/xlink">
 <defs>
  <style type="text/css">
*{stroke-linecap:square;stroke-linejoin:round;}
  </style>
 </defs>
 <g id="figure_1">
  <g id="patch_1">
   <path d="
M0 395.485
L764.515 395.485
L764.515 0
L0 0
z
" style="fill:#ffffff;"/>
  </g>
  <g id="axes_1">
   <g id="patch_2">
    <path d="
M73.3625 347.295
L742.962 347.295
L742.962 12.4948
L73.3625 12.4948
z
" style="fill:#e5e5e5;"/>
   </g>
   <g id="matplotlib.axis_1">
    <g id="xtick_1">
     <g id="line2d_1">
      <path clip-path="url(#p9489754398)" d="
M73.3625 347.295
L73.3625 12.4948" style="fill:none;stroke:#ffffff;stroke-width:0.5;"/>
     </g>
     <g id="line2d_2">
      <defs>
       <path d="
M0 0
L0 4" id="m7433545468" style="stroke:#555555;stroke-linecap:butt;stroke-width:0.5;"/>
      </defs>
      <g>
       <use style="fill:#555555;stroke:#555555;stroke-linecap:butt;stroke-width:0.5;" x="73.3625" xlink:href="#m7433545468" y="347.29484375"/>
      </g>
     </g>
     <g id="line2d_3">
      <defs>
       <path d="
M0 0
L0 -4" id="maa4ac689f6" style="stroke:#555555;stroke-linecap:butt;stroke-width:0.5;"/>
      </defs>
      <g>
       <use style="fill:#555555;stroke:#555555;stroke-linecap:butt;stroke-width:0.5;" x="73.3625" xlink:href="#maa4ac689f6" y="12.49484375"/>
      </g>
     </g>
     <g id="text_1">
      <!-- 0.91 -->
      <defs>
       <path d="
M10.9844 1.51562
L10.9844 10.5
Q14.7031 8.73438 18.5 7.8125
Q22.3125 6.89062 25.9844 6.89062
Q35.75 6.89062 40.8906 13.4531
Q46.0469 20.0156 46.7812 33.4062
Q43.9531 29.2031 39.5938 26.9531
Q35.25 24.7031 29.9844 24.7031
Q19.0469 24.7031 12.6719 31.3125
Q6.29688 37.9375 6.29688 49.4219
Q6.29688 60.6406 12.9375 67.4219
Q19.5781 74.2188 30.6094 74.2188
Q43.2656 74.2188 49.9219 64.5156
Q56.5938 54.8281 56.5938 36.375
Q56.5938 19.1406 48.4062 8.85938
Q40.2344 -1.42188 26.4219 -1.42188
Q22.7031 -1.42188 18.8906 -0.6875
Q15.0938 0.046875 10.9844 1.51562
M30.6094 32.4219
Q37.25 32.4219 41.125 36.9531
Q45.0156 41.5 45.0156 49.4219
Q45.0156 57.2812 41.125 61.8438
Q37.25 66.4062 30.6094 66.4062
Q23.9688 66.4062 20.0938 61.8438
Q16.2188 57.2812 16.2188 49.4219
Q16.2188 41.5 20.0938 36.9531
Q23.9688 32.4219 30.6094 32.4219" id="DejaVuSans-39"/>
       <path d="
M31.7812 66.4062
Q24.1719 66.4062 20.3281 58.9062
Q16.5 51.4219 16.5 36.375
Q16.5 21.3906 20.3281 13.8906
Q24.1719 6.39062 31.7812 6.39062
Q39.4531 6.39062 43.2812 13.8906
Q47.125 21.3906 47.125 36.375
Q47.125 51.4219 43.2812 58.9062
Q39.4531 66.4062 31.7812 66.4062
M31.7812 74.2188
Q44.0469 74.2188 50.5156 64.5156
Q56.9844 54.8281 56.9844 36.375
Q56.9844 17.9688 50.5156 8.26562
Q44.0469 -1.42188 31.7812 -1.42188
Q19.5312 -1.42188 13.0625 8.26562
Q6.59375 17.9688 6.59375 36.375
Q6.59375 54.8281 13.0625 64.5156
Q19.5312 74.2188 31.7812 74.2188" id="DejaVuSans-30"/>
       <path d="
M12.4062 8.29688
L28.5156 8.29688
L28.5156 63.9219
L10.9844 60.4062
L10.9844 69.3906
L28.4219 72.9062
L38.2812 72.9062
L38.2812 8.29688
L54.3906 8.29688
L54.3906 0
L12.4062 0
z
" id="DejaVuSans-31"/>
       <path d="
M10.6875 12.4062
L21 12.4062
L21 0
L10.6875 0
z
" id="DejaVuSans-2e"/>
      </defs>
      <g style="fill:#555555;" transform="translate(58.88453125 365.68546875)scale(0.14 -0.14)">
       <use xlink:href="#DejaVuSans-30"/>
       <use x="63.623046875" xlink:href="#DejaVuSans-2e"/>
       <use x="95.41015625" xlink:href="#DejaVuSans-39"/>
       <use x="159.033203125" xlink:href="#DejaVuSans-31"/>
      </g>
     </g>
    </g>
    <g id="xtick_2">
     <g id="line2d_4">
      <path clip-path="url(#p9489754398)" d="
M147.763 347.295
L147.763 12.4948" style="fill:none;stroke:#ffffff;stroke-width:0.5;"/>
     </g>
     <g id="line2d_5">
      <g>
       <use style="fill:#555555;stroke:#555555;stroke-linecap:butt;stroke-width:0.5;" x="147.7625" xlink:href="#m7433545468" y="347.29484375"/>
      </g>
     </g>
     <g id="line2d_6">
      <g>
       <use style="fill:#555555;stroke:#555555;stroke-linecap:butt;stroke-width:0.5;" x="147.7625" xlink:href="#maa4ac689f6" y="12.49484375"/>
      </g>
     </g>
     <g id="text_2">
      <!-- 0.92 -->
      <defs>
       <path d="
M19.1875 8.29688
L53.6094 8.29688
L53.6094 0
L7.32812 0
L7.32812 8.29688
Q12.9375 14.1094 22.625 23.8906
Q32.3281 33.6875 34.8125 36.5312
Q39.5469 41.8438 41.4219 45.5312
Q43.3125 49.2188 43.3125 52.7812
Q43.3125 58.5938 39.2344 62.25
Q35.1562 65.9219 28.6094 65.9219
Q23.9688 65.9219 18.8125 64.3125
Q13.6719 62.7031 7.8125 59.4219
L7.8125 69.3906
Q13.7656 71.7812 18.9375 73
Q24.125 74.2188 28.4219 74.2188
Q39.75 74.2188 46.4844 68.5469
Q53.2188 62.8906 53.2188 53.4219
Q53.2188 48.9219 51.5312 44.8906
Q49.8594 40.875 45.4062 35.4062
Q44.1875 33.9844 37.6406 27.2188
Q31.1094 20.4531 19.1875 8.29688" id="DejaVuSans-32"/>
      </defs>
      <g style="fill:#555555;" transform="translate(133.33921875 365.68546875)scale(0.14 -0.14)">
       <use xlink:href="#DejaVuSans-30"/>
       <use x="63.623046875" xlink:href="#DejaVuSans-2e"/>
       <use x="95.41015625" xlink:href="#DejaVuSans-39"/>
       <use x="159.033203125" xlink:href="#DejaVuSans-32"/>
      </g>
     </g>
    </g>
    <g id="xtick_3">
     <g id="line2d_7">
      <path clip-path="url(#p9489754398)" d="
M222.163 347.295
L222.163 12.4948" style="fill:none;stroke:#ffffff;stroke-width:0.5;"/>
     </g>
     <g id="line2d_8">
      <g>
       <use style="fill:#555555;stroke:#555555;stroke-linecap:butt;stroke-width:0.5;" x="222.1625" xlink:href="#m7433545468" y="347.29484375"/>
      </g>
     </g>
     <g id="line2d_9">
      <g>
       <use style="fill:#555555;stroke:#555555;stroke-linecap:butt;stroke-width:0.5;" x="222.1625" xlink:href="#maa4ac689f6" y="12.49484375"/>
      </g>
     </g>
     <g id="text_3">
      <!-- 0.93 -->
      <defs>
       <path d="
M40.5781 39.3125
Q47.6562 37.7969 51.625 33
Q55.6094 28.2188 55.6094 21.1875
Q55.6094 10.4062 48.1875 4.48438
Q40.7656 -1.42188 27.0938 -1.42188
Q22.5156 -1.42188 17.6562 -0.515625
Q12.7969 0.390625 7.625 2.20312
L7.625 11.7188
Q11.7188 9.32812 16.5938 8.10938
Q21.4844 6.89062 26.8125 6.89062
Q36.0781 6.89062 40.9375 10.5469
Q45.7969 14.2031 45.7969 21.1875
Q45.7969 27.6406 41.2812 31.2656
Q36.7656 34.9062 28.7188 34.9062
L20.2188 34.9062
L20.2188 43.0156
L29.1094 43.0156
Q36.375 43.0156 40.2344 45.9219
Q44.0938 48.8281 44.0938 54.2969
Q44.0938 59.9062 40.1094 62.9062
Q36.1406 65.9219 28.7188 65.9219
Q24.6562 65.9219 20.0156 65.0312
Q15.375 64.1562 9.8125 62.3125
L9.8125 71.0938
Q15.4375 72.6562 20.3438 73.4375
Q25.25 74.2188 29.5938 74.2188
Q40.8281 74.2188 47.3594 69.1094
Q53.9062 64.0156 53.9062 55.3281
Q53.9062 49.2656 50.4375 45.0938
Q46.9688 40.9219 40.5781 39.3125" id="DejaVuSans-33"/>
      </defs>
      <g style="fill:#555555;" transform="translate(207.59921875 365.68546875)scale(0.14 -0.14)">
       <use xlink:href="#DejaVuSans-30"/>
       <use x="63.623046875" xlink:href="#DejaVuSans-2e"/>
       <use x="95.41015625" xlink:href="#DejaVuSans-39"/>
       <use x="159.033203125" xlink:href="#DejaVuSans-33"/>
      </g>
     </g>
    </g>
    <g id="xtick_4">
     <g id="line2d_10">
      <path clip-path="url(#p9489754398)" d="
M296.563 347.295
L296.563 12.4948" style="fill:none;stroke:#ffffff;stroke-width:0.5;"/>
     </g>
     <g id="line2d_11">
      <g>
       <use style="fill:#555555;stroke:#555555;stroke-linecap:butt;stroke-width:0.5;" x="296.5625" xlink:href="#m7433545468" y="347.29484375"/>
      </g>
     </g>
     <g id="line2d_12">
      <g>
       <use style="fill:#555555;stroke:#555555;stroke-linecap:butt;stroke-width:0.5;" x="296.5625" xlink:href="#maa4ac689f6" y="12.49484375"/>
      </g>
     </g>
     <g id="text_4">
      <!-- 0.94 -->
      <defs>
       <path d="
M37.7969 64.3125
L12.8906 25.3906
L37.7969 25.3906
z

M35.2031 72.9062
L47.6094 72.9062
L47.6094 25.3906
L58.0156 25.3906
L58.0156 17.1875
L47.6094 17.1875
L47.6094 0
L37.7969 0
L37.7969 17.1875
L4.89062 17.1875
L4.89062 26.7031
z
" id="DejaVuSans-34"/>
      </defs>
      <g style="fill:#555555;" transform="translate(281.83078125 365.68546875)scale(0.14 -0.14)">
       <use xlink:href="#DejaVuSans-30"/>
       <use x="63.623046875" xlink:href="#DejaVuSans-2e"/>
       <use x="95.41015625" xlink:href="#DejaVuSans-39"/>
       <use x="159.033203125" xlink:href="#DejaVuSans-34"/>
      </g>
     </g>
    </g>
    <g id="xtick_5">
     <g id="line2d_13">
      <path clip-path="url(#p9489754398)" d="
M370.963 347.295
L370.963 12.4948" style="fill:none;stroke:#ffffff;stroke-width:0.5;"/>
     </g>
     <g id="line2d_14">
      <g>
       <use style="fill:#555555;stroke:#555555;stroke-linecap:butt;stroke-width:0.5;" x="370.9625" xlink:href="#m7433545468" y="347.29484375"/>
      </g>
     </g>
     <g id="line2d_15">
      <g>
       <use style="fill:#555555;stroke:#555555;stroke-linecap:butt;stroke-width:0.5;" x="370.9625" xlink:href="#maa4ac689f6" y="12.49484375"/>
      </g>
     </g>
     <g id="text_5">
      <!-- 0.95 -->
      <defs>
       <path d="
M10.7969 72.9062
L49.5156 72.9062
L49.5156 64.5938
L19.8281 64.5938
L19.8281 46.7344
Q21.9688 47.4688 24.1094 47.8281
Q26.2656 48.1875 28.4219 48.1875
Q40.625 48.1875 47.75 41.5
Q54.8906 34.8125 54.8906 23.3906
Q54.8906 11.625 47.5625 5.09375
Q40.2344 -1.42188 26.9062 -1.42188
Q22.3125 -1.42188 17.5469 -0.640625
Q12.7969 0.140625 7.71875 1.70312
L7.71875 11.625
Q12.1094 9.23438 16.7969 8.0625
Q21.4844 6.89062 26.7031 6.89062
Q35.1562 6.89062 40.0781 11.3281
Q45.0156 15.7656 45.0156 23.3906
Q45.0156 31 40.0781 35.4375
Q35.1562 39.8906 26.7031 39.8906
Q22.75 39.8906 18.8125 39.0156
Q14.8906 38.1406 10.7969 36.2812
z
" id="DejaVuSans-35"/>
      </defs>
      <g style="fill:#555555;" transform="translate(356.44953125 365.68546875)scale(0.14 -0.14)">
       <use xlink:href="#DejaVuSans-30"/>
       <use x="63.623046875" xlink:href="#DejaVuSans-2e"/>
       <use x="95.41015625" xlink:href="#DejaVuSans-39"/>
       <use x="159.033203125" xlink:href="#DejaVuSans-35"/>
      </g>
     </g>
    </g>
    <g id="xtick_6">
     <g id="line2d_16">
      <path clip-path="url(#p9489754398)" d="
M445.363 347.295
L445.363 12.4948" style="fill:none;stroke:#ffffff;stroke-width:0.5;"/>
     </g>
     <g id="line2d_17">
      <g>
       <use style="fill:#555555;stroke:#555555;stroke-linecap:butt;stroke-width:0.5;" x="445.3625" xlink:href="#m7433545468" y="347.29484375"/>
      </g>
     </g>
     <g id="line2d_18">
      <g>
       <use style="fill:#555555;stroke:#555555;stroke-linecap:butt;stroke-width:0.5;" x="445.3625" xlink:href="#maa4ac689f6" y="12.49484375"/>
      </g>
     </g>
     <g id="text_6">
      <!-- 0.96 -->
      <defs>
       <path d="
M33.0156 40.375
Q26.375 40.375 22.4844 35.8281
Q18.6094 31.2969 18.6094 23.3906
Q18.6094 15.5312 22.4844 10.9531
Q26.375 6.39062 33.0156 6.39062
Q39.6562 6.39062 43.5312 10.9531
Q47.4062 15.5312 47.4062 23.3906
Q47.4062 31.2969 43.5312 35.8281
Q39.6562 40.375 33.0156 40.375
M52.5938 71.2969
L52.5938 62.3125
Q48.875 64.0625 45.0938 64.9844
Q41.3125 65.9219 37.5938 65.9219
Q27.8281 65.9219 22.6719 59.3281
Q17.5312 52.7344 16.7969 39.4062
Q19.6719 43.6562 24.0156 45.9219
Q28.375 48.1875 33.5938 48.1875
Q44.5781 48.1875 50.9531 41.5156
Q57.3281 34.8594 57.3281 23.3906
Q57.3281 12.1562 50.6875 5.35938
Q44.0469 -1.42188 33.0156 -1.42188
Q20.3594 -1.42188 13.6719 8.26562
Q6.98438 17.9688 6.98438 36.375
Q6.98438 53.6562 15.1875 63.9375
Q23.3906 74.2188 37.2031 74.2188
Q40.9219 74.2188 44.7031 73.4844
Q48.4844 72.75 52.5938 71.2969" id="DejaVuSans-36"/>
      </defs>
      <g style="fill:#555555;" transform="translate(430.67890625 365.68546875)scale(0.14 -0.14)">
       <use xlink:href="#DejaVuSans-30"/>
       <use x="63.623046875" xlink:href="#DejaVuSans-2e"/>
       <use x="95.41015625" xlink:href="#DejaVuSans-39"/>
       <use x="159.033203125" xlink:href="#DejaVuSans-36"/>
      </g>
     </g>
    </g>
    <g id="xtick_7">
     <g id="line2d_19">
      <path clip-path="url(#p9489754398)" d="
M519.762 347.295
L519.762 12.4948" style="fill:none;stroke:#ffffff;stroke-width:0.5;"/>
     </g>
     <g id="line2d_20">
      <g>
       <use style="fill:#555555;stroke:#555555;stroke-linecap:butt;stroke-width:0.5;" x="519.7625" xlink:href="#m7433545468" y="347.29484375"/>
      </g>
     </g>
     <g id="line2d_21">
      <g>
       <use style="fill:#555555;stroke:#555555;stroke-linecap:butt;stroke-width:0.5;" x="519.7625" xlink:href="#maa4ac689f6" y="12.49484375"/>
      </g>
     </g>
     <g id="text_7">
      <!-- 0.97 -->
      <defs>
       <path d="
M8.20312 72.9062
L55.0781 72.9062
L55.0781 68.7031
L28.6094 0
L18.3125 0
L43.2188 64.5938
L8.20312 64.5938
z
" id="DejaVuSans-37"/>
      </defs>
      <g style="fill:#555555;" transform="translate(505.23640625 365.68546875)scale(0.14 -0.14)">
       <use xlink:href="#DejaVuSans-30"/>
       <use x="63.623046875" xlink:href="#DejaVuSans-2e"/>
       <use x="95.41015625" xlink:href="#DejaVuSans-39"/>
       <use x="159.033203125" xlink:href="#DejaVuSans-37"/>
      </g>
     </g>
    </g>
    <g id="xtick_8">
     <g id="line2d_22">
      <path clip-path="url(#p9489754398)" d="
M594.163 347.295
L594.163 12.4948" style="fill:none;stroke:#ffffff;stroke-width:0.5;"/>
     </g>
     <g id="line2d_23">
      <g>
       <use style="fill:#555555;stroke:#555555;stroke-linecap:butt;stroke-width:0.5;" x="594.1625" xlink:href="#m7433545468" y="347.29484375"/>
      </g>
     </g>
     <g id="line2d_24">
      <g>
       <use style="fill:#555555;stroke:#555555;stroke-linecap:butt;stroke-width:0.5;" x="594.1625" xlink:href="#maa4ac689f6" y="12.49484375"/>
      </g>
     </g>
     <g id="text_8">
      <!-- 0.98 -->
      <defs>
       <path d="
M31.7812 34.625
Q24.75 34.625 20.7188 30.8594
Q16.7031 27.0938 16.7031 20.5156
Q16.7031 13.9219 20.7188 10.1562
Q24.75 6.39062 31.7812 6.39062
Q38.8125 6.39062 42.8594 10.1719
Q46.9219 13.9688 46.9219 20.5156
Q46.9219 27.0938 42.8906 30.8594
Q38.875 34.625 31.7812 34.625
M21.9219 38.8125
Q15.5781 40.375 12.0312 44.7188
Q8.5 49.0781 8.5 55.3281
Q8.5 64.0625 14.7188 69.1406
Q20.9531 74.2188 31.7812 74.2188
Q42.6719 74.2188 48.875 69.1406
Q55.0781 64.0625 55.0781 55.3281
Q55.0781 49.0781 51.5312 44.7188
Q48 40.375 41.7031 38.8125
Q48.8281 37.1562 52.7969 32.3125
Q56.7812 27.4844 56.7812 20.5156
Q56.7812 9.90625 50.3125 4.23438
Q43.8438 -1.42188 31.7812 -1.42188
Q19.7344 -1.42188 13.25 4.23438
Q6.78125 9.90625 6.78125 20.5156
Q6.78125 27.4844 10.7812 32.3125
Q14.7969 37.1562 21.9219 38.8125
M18.3125 54.3906
Q18.3125 48.7344 21.8438 45.5625
Q25.3906 42.3906 31.7812 42.3906
Q38.1406 42.3906 41.7188 45.5625
Q45.3125 48.7344 45.3125 54.3906
Q45.3125 60.0625 41.7188 63.2344
Q38.1406 66.4062 31.7812 66.4062
Q25.3906 66.4062 21.8438 63.2344
Q18.3125 60.0625 18.3125 54.3906" id="DejaVuSans-38"/>
      </defs>
      <g style="fill:#555555;" transform="translate(579.5171875 365.68546875)scale(0.14 -0.14)">
       <use xlink:href="#DejaVuSans-30"/>
       <use x="63.623046875" xlink:href="#DejaVuSans-2e"/>
       <use x="95.41015625" xlink:href="#DejaVuSans-39"/>
       <use x="159.033203125" xlink:href="#DejaVuSans-38"/>
      </g>
     </g>
    </g>
    <g id="xtick_9">
     <g id="line2d_25">
      <path clip-path="url(#p9489754398)" d="
M668.562 347.295
L668.562 12.4948" style="fill:none;stroke:#ffffff;stroke-width:0.5;"/>
     </g>
     <g id="line2d_26">
      <g>
       <use style="fill:#555555;stroke:#555555;stroke-linecap:butt;stroke-width:0.5;" x="668.5625" xlink:href="#m7433545468" y="347.29484375"/>
      </g>
     </g>
     <g id="line2d_27">
      <g>
       <use style="fill:#555555;stroke:#555555;stroke-linecap:butt;stroke-width:0.5;" x="668.5625" xlink:href="#maa4ac689f6" y="12.49484375"/>
      </g>
     </g>
     <g id="text_9">
      <!-- 0.99 -->
      <g style="fill:#555555;" transform="translate(653.9303125 365.68546875)scale(0.14 -0.14)">
       <use xlink:href="#DejaVuSans-30"/>
       <use x="63.623046875" xlink:href="#DejaVuSans-2e"/>
       <use x="95.41015625" xlink:href="#DejaVuSans-39"/>
       <use x="159.033203125" xlink:href="#DejaVuSans-39"/>
      </g>
     </g>
    </g>
    <g id="xtick_10">
     <g id="line2d_28">
      <path clip-path="url(#p9489754398)" d="
M742.963 347.295
L742.963 12.4948" style="fill:none;stroke:#ffffff;stroke-width:0.5;"/>
     </g>
     <g id="line2d_29">
      <g>
       <use style="fill:#555555;stroke:#555555;stroke-linecap:butt;stroke-width:0.5;" x="742.9625" xlink:href="#m7433545468" y="347.29484375"/>
      </g>
     </g>
     <g id="line2d_30">
      <g>
       <use style="fill:#555555;stroke:#555555;stroke-linecap:butt;stroke-width:0.5;" x="742.9625" xlink:href="#maa4ac689f6" y="12.49484375"/>
      </g>
     </g>
     <g id="text_10">
      <!-- 1.00 -->
      <g style="fill:#555555;" transform="translate(728.6103125 365.68546875)scale(0.14 -0.14)">
       <use xlink:href="#DejaVuSans-31"/>
       <use x="63.623046875" xlink:href="#DejaVuSans-2e"/>
       <use x="95.41015625" xlink:href="#DejaVuSans-30"/>
       <use x="159.033203125" xlink:href="#DejaVuSans-30"/>
      </g>
     </g>
    </g>
    <g id="text_11">
     <!-- $\tilde{p}$ -->
     <defs>
      <path d="
M8.29688 58.8906
L11.1875 62.3125
Q15.0938 66.7969 19 66.7969
Q20.9062 66.7969 23.1719 65.6719
Q25.4375 64.5469 27.7031 63.4219
Q29.9844 62.3125 31.8906 62.3125
Q35.8906 62.3125 39.5938 66.7969
L41.6094 65.0938
L38.7188 61.7188
Q34.7656 57.1719 30.9062 57.1719
Q29 57.1719 26.7344 58.3125
Q24.4688 59.4688 22.1875 60.5938
Q19.9219 61.7188 18.0156 61.7188
Q14.0156 61.7188 10.2969 57.1719
z
" id="Cmr10-7e"/>
      <path d="
M-2.48438 -19.3906
Q-3.42188 -19.3906 -3.42188 -18.1094
Q-3.07812 -15.9219 -2.09375 -15.9219
Q1.03125 -15.9219 2.26562 -15.3594
Q3.51562 -14.7969 4.20312 -12.5
L15.4844 32.5156
Q16.2188 34.375 16.2188 37.3125
Q16.2188 41.6094 13.2812 41.6094
Q10.1562 41.6094 8.64062 37.8594
Q7.125 34.125 5.71875 28.4219
Q5.71875 27.7812 4.89062 27.7812
L3.71875 27.7812
Q3.46875 27.7812 3.17188 28.1406
Q2.875 28.5156 2.875 28.8125
Q3.95312 33.1562 4.95312 36.1719
Q5.95312 39.2031 8.07812 41.6875
Q10.2031 44.1875 13.375 44.1875
Q16.7969 44.1875 19.375 42.25
Q21.9688 40.3281 22.7031 37.0156
Q25.4375 40.1875 28.75 42.1875
Q32.0781 44.1875 35.5938 44.1875
Q39.7969 44.1875 42.8906 41.9375
Q46 39.7031 47.5625 36.0625
Q49.125 32.4219 49.125 28.2188
Q49.125 21.7812 45.8281 14.8906
Q42.5312 8.01562 36.8906 3.4375
Q31.25 -1.125 24.8125 -1.125
Q21.875 -1.125 19.5 0.53125
Q17.1406 2.20312 15.8281 4.89062
L11.2812 -12.8906
Q11.0312 -14.3594 10.9844 -14.5938
Q10.9844 -15.9219 17.5781 -15.9219
Q18.6094 -15.9219 18.6094 -17.1875
Q18.2656 -18.5 18.0469 -18.9375
Q17.8281 -19.3906 16.8906 -19.3906
z

M24.9062 1.51562
Q28.375 1.51562 31.3438 4.375
Q34.3281 7.23438 36.1875 10.7969
Q37.5469 13.4844 38.7344 17.3594
Q39.9375 21.2344 40.8125 25.625
Q41.7031 30.0312 41.7031 32.625
Q41.7031 34.9062 41.0938 36.9062
Q40.4844 38.9219 39.0938 40.2656
Q37.7031 41.6094 35.4062 41.6094
Q31.7344 41.6094 28.4844 38.9844
Q25.25 36.375 22.6094 32.5156
L22.6094 32.1719
L17.0938 10.1094
Q17.7812 6.54688 19.7344 4.03125
Q21.6875 1.51562 24.9062 1.51562" id="Cmmi10-70"/>
     </defs>
     <g style="fill:#555555;" transform="translate(403.0625 388.28453125)scale(0.2 -0.2)">
      <use transform="translate(-0.296875 20.203125)" xlink:href="#Cmr10-7e"/>
      <use transform="translate(0.0 20.6875)" xlink:href="#Cmmi10-70"/>
     </g>
    </g>
   </g>
   <g id="matplotlib.axis_2">
    <g id="ytick_1">
     <g id="line2d_31">
      <path clip-path="url(#p9489754398)" d="
M73.3625 347.295
L742.962 347.295" style="fill:none;stroke:#ffffff;stroke-width:0.5;"/>
     </g>
     <g id="line2d_32">
      <defs>
       <path d="
M0 0
L-4 0" id="m3e680a24a7" style="stroke:#555555;stroke-linecap:butt;stroke-width:0.5;"/>
      </defs>
      <g>
       <use style="fill:#555555;stroke:#555555;stroke-linecap:butt;stroke-width:0.5;" x="73.3625" xlink:href="#m3e680a24a7" y="347.29484375"/>
      </g>
     </g>
     <g id="line2d_33">
      <defs>
       <path d="
M0 0
L4 0" id="m802668454a" style="stroke:#555555;stroke-linecap:butt;stroke-width:0.5;"/>
      </defs>
      <g>
       <use style="fill:#555555;stroke:#555555;stroke-linecap:butt;stroke-width:0.5;" x="742.9625" xlink:href="#m802668454a" y="347.29484375"/>
      </g>
     </g>
     <g id="text_12">
      <!-- 0 -->
      <g style="fill:#555555;" transform="translate(58.3078125 352.390625)scale(0.14 -0.14)">
       <use xlink:href="#DejaVuSans-30"/>
      </g>
     </g>
    </g>
    <g id="ytick_2">
     <g id="line2d_34">
      <path clip-path="url(#p9489754398)" d="
M73.3625 310.095
L742.962 310.095" style="fill:none;stroke:#ffffff;stroke-width:0.5;"/>
     </g>
     <g id="line2d_35">
      <g>
       <use style="fill:#555555;stroke:#555555;stroke-linecap:butt;stroke-width:0.5;" x="73.3625" xlink:href="#m3e680a24a7" y="310.09484375"/>
      </g>
     </g>
     <g id="line2d_36">
      <g>
       <use style="fill:#555555;stroke:#555555;stroke-linecap:butt;stroke-width:0.5;" x="742.9625" xlink:href="#m802668454a" y="310.09484375"/>
      </g>
     </g>
     <g id="text_13">
      <!-- 200 -->
      <g style="fill:#555555;" transform="translate(40.595625 315.190625)scale(0.14 -0.14)">
       <use xlink:href="#DejaVuSans-32"/>
       <use x="63.623046875" xlink:href="#DejaVuSans-30"/>
       <use x="127.24609375" xlink:href="#DejaVuSans-30"/>
      </g>
     </g>
    </g>
    <g id="ytick_3">
     <g id="line2d_37">
      <path clip-path="url(#p9489754398)" d="
M73.3625 272.895
L742.962 272.895" style="fill:none;stroke:#ffffff;stroke-width:0.5;"/>
     </g>
     <g id="line2d_38">
      <g>
       <use style="fill:#555555;stroke:#555555;stroke-linecap:butt;stroke-width:0.5;" x="73.3625" xlink:href="#m3e680a24a7" y="272.89484375"/>
      </g>
     </g>
     <g id="line2d_39">
      <g>
       <use style="fill:#555555;stroke:#555555;stroke-linecap:butt;stroke-width:0.5;" x="742.9625" xlink:href="#m802668454a" y="272.89484375"/>
      </g>
     </g>
     <g id="text_14">
      <!-- 400 -->
      <g style="fill:#555555;" transform="translate(40.254375 277.990625)scale(0.14 -0.14)">
       <use xlink:href="#DejaVuSans-34"/>
       <use x="63.623046875" xlink:href="#DejaVuSans-30"/>
       <use x="127.24609375" xlink:href="#DejaVuSans-30"/>
      </g>
     </g>
    </g>
    <g id="ytick_4">
     <g id="line2d_40">
      <path clip-path="url(#p9489754398)" d="
M73.3625 235.695
L742.962 235.695" style="fill:none;stroke:#ffffff;stroke-width:0.5;"/>
     </g>
     <g id="line2d_41">
      <g>
       <use style="fill:#555555;stroke:#555555;stroke-linecap:butt;stroke-width:0.5;" x="73.3625" xlink:href="#m3e680a24a7" y="235.69484375"/>
      </g>
     </g>
     <g id="line2d_42">
      <g>
       <use style="fill:#555555;stroke:#555555;stroke-linecap:butt;stroke-width:0.5;" x="742.9625" xlink:href="#m802668454a" y="235.69484375"/>
      </g>
     </g>
     <g id="text_15">
      <!-- 600 -->
      <g style="fill:#555555;" transform="translate(40.5475 240.790625)scale(0.14 -0.14)">
       <use xlink:href="#DejaVuSans-36"/>
       <use x="63.623046875" xlink:href="#DejaVuSans-30"/>
       <use x="127.24609375" xlink:href="#DejaVuSans-30"/>
      </g>
     </g>
    </g>
    <g id="ytick_5">
     <g id="line2d_43">
      <path clip-path="url(#p9489754398)" d="
M73.3625 198.495
L742.962 198.495" style="fill:none;stroke:#ffffff;stroke-width:0.5;"/>
     </g>
     <g id="line2d_44">
      <g>
       <use style="fill:#555555;stroke:#555555;stroke-linecap:butt;stroke-width:0.5;" x="73.3625" xlink:href="#m3e680a24a7" y="198.49484375"/>
      </g>
     </g>
     <g id="line2d_45">
      <g>
       <use style="fill:#555555;stroke:#555555;stroke-linecap:butt;stroke-width:0.5;" x="742.9625" xlink:href="#m802668454a" y="198.49484375"/>
      </g>
     </g>
     <g id="text_16">
      <!-- 800 -->
      <g style="fill:#555555;" transform="translate(40.5190625 203.590625)scale(0.14 -0.14)">
       <use xlink:href="#DejaVuSans-38"/>
       <use x="63.623046875" xlink:href="#DejaVuSans-30"/>
       <use x="127.24609375" xlink:href="#DejaVuSans-30"/>
      </g>
     </g>
    </g>
    <g id="ytick_6">
     <g id="line2d_46">
      <path clip-path="url(#p9489754398)" d="
M73.3625 161.295
L742.962 161.295" style="fill:none;stroke:#ffffff;stroke-width:0.5;"/>
     </g>
     <g id="line2d_47">
      <g>
       <use style="fill:#555555;stroke:#555555;stroke-linecap:butt;stroke-width:0.5;" x="73.3625" xlink:href="#m3e680a24a7" y="161.29484375"/>
      </g>
     </g>
     <g id="line2d_48">
      <g>
       <use style="fill:#555555;stroke:#555555;stroke-linecap:butt;stroke-width:0.5;" x="742.9625" xlink:href="#m802668454a" y="161.29484375"/>
      </g>
     </g>
     <g id="text_17">
      <!-- 1000 -->
      <g style="fill:#555555;" transform="translate(32.2 166.390625)scale(0.14 -0.14)">
       <use xlink:href="#DejaVuSans-31"/>
       <use x="63.623046875" xlink:href="#DejaVuSans-30"/>
       <use x="127.24609375" xlink:href="#DejaVuSans-30"/>
       <use x="190.869140625" xlink:href="#DejaVuSans-30"/>
      </g>
     </g>
    </g>
    <g id="ytick_7">
     <g id="line2d_49">
      <path clip-path="url(#p9489754398)" d="
M73.3625 124.095
L742.962 124.095" style="fill:none;stroke:#ffffff;stroke-width:0.5;"/>
     </g>
     <g id="line2d_50">
      <g>
       <use style="fill:#555555;stroke:#555555;stroke-linecap:butt;stroke-width:0.5;" x="73.3625" xlink:href="#m3e680a24a7" y="124.09484375"/>
      </g>
     </g>
     <g id="line2d_51">
      <g>
       <use style="fill:#555555;stroke:#555555;stroke-linecap:butt;stroke-width:0.5;" x="742.9625" xlink:href="#m802668454a" y="124.09484375"/>
      </g>
     </g>
     <g id="text_18">
      <!-- 1200 -->
      <g style="fill:#555555;" transform="translate(32.2 129.190625)scale(0.14 -0.14)">
       <use xlink:href="#DejaVuSans-31"/>
       <use x="63.623046875" xlink:href="#DejaVuSans-32"/>
       <use x="127.24609375" xlink:href="#DejaVuSans-30"/>
       <use x="190.869140625" xlink:href="#DejaVuSans-30"/>
      </g>
     </g>
    </g>
    <g id="ytick_8">
     <g id="line2d_52">
      <path clip-path="url(#p9489754398)" d="
M73.3625 86.8948
L742.962 86.8948" style="fill:none;stroke:#ffffff;stroke-width:0.5;"/>
     </g>
     <g id="line2d_53">
      <g>
       <use style="fill:#555555;stroke:#555555;stroke-linecap:butt;stroke-width:0.5;" x="73.3625" xlink:href="#m3e680a24a7" y="86.89484375"/>
      </g>
     </g>
     <g id="line2d_54">
      <g>
       <use style="fill:#555555;stroke:#555555;stroke-linecap:butt;stroke-width:0.5;" x="742.9625" xlink:href="#m802668454a" y="86.89484375"/>
      </g>
     </g>
     <g id="text_19">
      <!-- 1400 -->
      <g style="fill:#555555;" transform="translate(32.2 91.990625)scale(0.14 -0.14)">
       <use xlink:href="#DejaVuSans-31"/>
       <use x="63.623046875" xlink:href="#DejaVuSans-34"/>
       <use x="127.24609375" xlink:href="#DejaVuSans-30"/>
       <use x="190.869140625" xlink:href="#DejaVuSans-30"/>
      </g>
     </g>
    </g>
    <g id="ytick_9">
     <g id="line2d_55">
      <path clip-path="url(#p9489754398)" d="
M73.3625 49.6948
L742.962 49.6948" style="fill:none;stroke:#ffffff;stroke-width:0.5;"/>
     </g>
     <g id="line2d_56">
      <g>
       <use style="fill:#555555;stroke:#555555;stroke-linecap:butt;stroke-width:0.5;" x="73.3625" xlink:href="#m3e680a24a7" y="49.69484375"/>
      </g>
     </g>
     <g id="line2d_57">
      <g>
       <use style="fill:#555555;stroke:#555555;stroke-linecap:butt;stroke-width:0.5;" x="742.9625" xlink:href="#m802668454a" y="49.69484375"/>
      </g>
     </g>
     <g id="text_20">
      <!-- 1600 -->
      <g style="fill:#555555;" transform="translate(32.2 54.790625)scale(0.14 -0.14)">
       <use xlink:href="#DejaVuSans-31"/>
       <use x="63.623046875" xlink:href="#DejaVuSans-36"/>
       <use x="127.24609375" xlink:href="#DejaVuSans-30"/>
       <use x="190.869140625" xlink:href="#DejaVuSans-30"/>
      </g>
     </g>
    </g>
    <g id="ytick_10">
     <g id="line2d_58">
      <path clip-path="url(#p9489754398)" d="
M73.3625 12.4948
L742.962 12.4948" style="fill:none;stroke:#ffffff;stroke-width:0.5;"/>
     </g>
     <g id="line2d_59">
      <g>
       <use style="fill:#555555;stroke:#555555;stroke-linecap:butt;stroke-width:0.5;" x="73.3625" xlink:href="#m3e680a24a7" y="12.49484375"/>
      </g>
     </g>
     <g id="line2d_60">
      <g>
       <use style="fill:#555555;stroke:#555555;stroke-linecap:butt;stroke-width:0.5;" x="742.9625" xlink:href="#m802668454a" y="12.49484375"/>
      </g>
     </g>
     <g id="text_21">
      <!-- 1800 -->
      <g style="fill:#555555;" transform="translate(32.2 17.590625)scale(0.14 -0.14)">
       <use xlink:href="#DejaVuSans-31"/>
       <use x="63.623046875" xlink:href="#DejaVuSans-38"/>
       <use x="127.24609375" xlink:href="#DejaVuSans-30"/>
       <use x="190.869140625" xlink:href="#DejaVuSans-30"/>
      </g>
     </g>
    </g>
    <g id="text_22">
     <!-- $\Pr(\tilde{p})$ -->
     <defs>
      <path d="
M31 -24.8125
Q25.4375 -20.4062 21.4062 -14.7188
Q17.3906 -9.03125 14.8125 -2.57812
Q12.25 3.85938 10.9844 10.8906
Q9.71875 17.9219 9.71875 25
Q9.71875 32.1719 10.9844 39.2031
Q12.25 46.2344 14.8594 52.7344
Q17.4844 59.2344 21.5312 64.8906
Q25.5938 70.5625 31 74.8125
Q31 75 31.5 75
L32.4219 75
Q32.7188 75 32.9531 74.7344
Q33.2031 74.4688 33.2031 74.125
Q33.2031 73.6875 33.0156 73.4844
Q28.125 68.7031 24.875 63.2344
Q21.625 57.7656 19.6406 51.5781
Q17.6719 45.4062 16.7969 38.7812
Q15.9219 32.1719 15.9219 25
Q15.9219 -6.78125 32.9062 -23.2969
Q33.2031 -23.5781 33.2031 -24.125
Q33.2031 -24.3594 32.9375 -24.6719
Q32.6719 -25 32.4219 -25
L31.5 -25
Q31 -25 31 -24.8125" id="Cmr10-28"/>
      <path d="
M6.5 -25
Q5.60938 -25 5.60938 -24.125
Q5.60938 -23.6875 5.8125 -23.4844
Q22.9062 -6.78125 22.9062 25
Q22.9062 56.7812 6 73.2969
Q5.60938 73.5312 5.60938 74.125
Q5.60938 74.4688 5.875 74.7344
Q6.15625 75 6.5 75
L7.42188 75
Q7.71875 75 7.90625 74.8125
Q15.0938 69.1406 19.875 61.0312
Q24.6562 52.9375 26.875 43.75
Q29.1094 34.5781 29.1094 25
Q29.1094 17.9219 27.9062 11.0625
Q26.7031 4.20312 24.0938 -2.45312
Q21.4844 -9.125 17.4844 -14.7656
Q13.4844 -20.4062 7.90625 -24.8125
Q7.71875 -25 7.42188 -25
z
" id="Cmr10-29"/>
      <path d="
M3.32812 0
L3.32812 3.51562
Q13.625 3.51562 13.625 6.6875
L13.625 61.625
Q13.625 64.7969 3.32812 64.7969
L3.32812 68.3125
L38.9219 68.3125
Q44.3906 68.3125 49.8594 66.0625
Q55.3281 63.8125 58.8594 59.5156
Q62.4062 55.2188 62.4062 49.5156
Q62.4062 43.9531 58.8438 39.75
Q55.2812 35.5469 49.8594 33.375
Q44.4375 31.2031 38.9219 31.2031
L22.9062 31.2031
L22.9062 6.6875
Q22.9062 3.51562 33.2031 3.51562
L33.2031 0
z

M22.6094 34.1875
L36.1875 34.1875
Q41.7031 34.1875 45.1094 35.7656
Q48.5312 37.3594 50.1094 40.7031
Q51.7031 44.0469 51.7031 49.5156
Q51.7031 57.6719 48.1094 61.2344
Q44.5312 64.7969 36.1875 64.7969
L27.6875 64.7969
Q25.875 64.7969 24.875 64.6406
Q23.875 64.5 23.2344 63.7969
Q22.6094 63.0938 22.6094 61.625
z
" id="Cmr10-50"/>
      <path d="
M2.59375 0
L2.59375 3.51562
Q6 3.51562 8.20312 4.04688
Q10.4062 4.59375 10.4062 6.6875
L10.4062 33.9844
Q10.4062 36.6719 9.59375 37.8594
Q8.79688 39.0625 7.28125 39.3281
Q5.76562 39.5938 2.59375 39.5938
L2.59375 43.1094
L16.8906 44.1875
L16.8906 34.4219
Q18.5 38.7656 21.4844 41.4688
Q24.4688 44.1875 28.7188 44.1875
Q31.6875 44.1875 34.0312 42.4219
Q36.375 40.6719 36.375 37.7969
Q36.375 35.9844 35.0781 34.6406
Q33.7969 33.2969 31.8906 33.2969
Q30.0312 33.2969 28.7031 34.6094
Q27.3906 35.9375 27.3906 37.7969
Q27.3906 40.4844 29.2969 41.6094
L28.7188 41.6094
Q24.6562 41.6094 22.0938 38.6719
Q19.5312 35.75 18.4531 31.3906
Q17.3906 27.0469 17.3906 23.0938
L17.3906 6.6875
Q17.3906 3.51562 27.0938 3.51562
L27.0938 0
z
" id="Cmr10-72"/>
     </defs>
     <g style="fill:#555555;" transform="translate(27.2 203.49484375)rotate(-90.0)scale(0.2 -0.2)">
      <use transform="translate(0.0 25.0)" xlink:href="#Cmr10-50"/>
      <use transform="translate(68.017578125 25.0)" xlink:href="#Cmr10-72"/>
      <use transform="translate(107.12890625 25.0)" xlink:href="#Cmr10-28"/>
      <use transform="translate(145.650390625 24.515625)" xlink:href="#Cmr10-7e"/>
      <use transform="translate(145.947265625 25.0)" xlink:href="#Cmmi10-70"/>
      <use transform="translate(196.240234375 25.0)" xlink:href="#Cmr10-29"/>
     </g>
    </g>
   </g>
   <g id="LineCollection_1">
    <defs>
     <path d="
M697.824 -48.1897
L697.824 -717.79" id="C0_0_5c0b1a45a2"/>
    </defs>
    <g clip-path="url(#p9489754398)">
     <use style="fill:none;stroke:#000000;stroke-dasharray:1.000000,3.000000;stroke-dashoffset:0.0;stroke-linecap:butt;stroke-width:1.5;" x="0" xlink:href="#C0_0_5c0b1a45a2" y="395.48453125"/>
    </g>
   </g>
   <g id="LineCollection_2">
    <defs>
     <path d="
M730.571 -48.1897
L730.571 -717.79" id="C1_0_957493ea6b"/>
    </defs>
    <g clip-path="url(#p9489754398)">
     <use style="fill:none;stroke:#000000;stroke-linecap:butt;stroke-width:1.5;" x="0" xlink:href="#C1_0_957493ea6b" y="395.48453125"/>
    </g>
   </g>
   <g id="line2d_61">
    <path clip-path="url(#p9489754398)" d="
M698.715 347.273
L699.941 347.188
L700.276 347.14
L700.498 346.466
L700.721 346.851
L700.944 347.04
L701.279 345.682
L701.39 343.775
L701.613 344.969
L701.836 342.383
L701.948 343.163
L702.059 344.752
L702.171 344.602
L702.505 338.606
L702.616 340.135
L702.839 332.275
L703.062 334.801
L703.285 331.344
L703.397 329.717
L703.508 325.311
L703.731 305.912
L703.843 311.512
L704.066 303.481
L704.177 304.885
L704.4 294.856
L704.511 294.329
L704.623 298.01
L704.846 270.49
L704.957 273.965
L705.18 243.952
L705.292 252.09
L705.515 245.695
L705.738 215.393
L705.849 231.704
L706.184 161.747
L706.295 182.676
L706.407 177.9
L706.629 131.938
L706.852 116.507
L706.964 133.099
L707.075 127.308
L707.187 130.019
L707.744 24.8903
L707.967 102.952
L708.19 55.5035
L708.413 97.0105
L708.636 53.5267
L708.859 64.6987
L709.082 127.136
L709.305 117.059
L709.416 129.111
L709.528 128.187
L709.639 131.584
L709.862 167.97
L710.085 203.058
L710.197 184.582
L710.308 185.435
L710.531 204.392
L711.423 280.972
L711.534 284.296
L711.646 282.332
L711.869 304.739
L711.98 304.538
L712.983 335.194
L713.095 335.878
L713.318 338.048
L713.764 343.317
L713.987 344.089
L714.321 345.952
L714.767 346.679
L715.213 347.05
L715.659 347.228
L716.55 347.279
L718 347.295
L720.898 347.295
L720.898 347.295" style="fill:none;stroke:#e24a33;stroke-width:1.5;"/>
   </g>
   <g id="line2d_62">
    <path clip-path="url(#p9489754398)" d="
M103.079 347.288
L147.038 347.19
L166.269 347
L169.017 346.941
L177.259 347.046
L199.238 346.893
L201.986 346.949
L210.228 346.43
L215.723 346.648
L221.218 346.207
L223.965 346.213
L226.713 346.372
L229.46 346.278
L234.955 345.824
L237.702 345.721
L240.45 345.47
L243.197 345.53
L245.945 345.817
L248.692 345.48
L251.439 344.961
L254.187 344.816
L256.934 344.795
L259.682 344.339
L262.429 344.464
L265.177 344.783
L270.671 344.026
L273.419 343.882
L276.166 343.574
L278.914 343.702
L281.661 343.536
L284.408 342.959
L287.156 343.434
L289.903 344.03
L292.651 343.555
L295.398 342.956
L300.893 343.506
L303.64 342.828
L306.388 341.727
L309.135 341.732
L311.883 342.129
L314.63 341.899
L317.377 340.993
L320.125 340.935
L325.62 341.534
L328.367 341.505
L331.115 340.628
L333.862 340.498
L336.609 340.565
L339.357 340.52
L342.104 340.625
L347.599 339.94
L353.094 339.923
L355.841 340.345
L358.589 340.453
L361.336 339.043
L364.084 339.239
L366.831 340.261
L369.578 339.9
L372.326 339.345
L375.073 339.514
L377.821 340.428
L380.568 340.114
L383.315 339.579
L386.063 339.653
L388.81 339.956
L391.558 340.776
L394.305 340.728
L397.053 340.1
L402.547 340.088
L405.295 341.111
L408.042 340.93
L410.79 340.958
L413.537 341.708
L416.284 341.593
L432.769 341.825
L435.516 341.921
L438.264 342.551
L441.011 343.044
L443.759 342.824
L446.506 342.867
L452.001 343.619
L454.748 343.748
L457.496 343.544
L460.243 343.592
L462.991 343.797
L465.738 343.83
L468.485 344.095
L471.233 344.628
L473.98 344.956
L476.728 344.754
L479.475 344.274
L482.222 344.394
L484.97 344.985
L487.717 345.217
L493.212 345.139
L501.454 345.753
L506.949 345.613
L509.697 345.826
L512.444 346.157
L515.191 346.318
L517.939 346.003
L520.686 346.125
L523.434 346.441
L534.423 346.501
L539.918 346.845
L542.666 346.795
L548.16 346.957
L553.655 346.8
L559.15 347.098
L575.635 347.136
L578.382 347.205
L586.624 347.152
L594.867 347.214
L600.361 347.249
L608.604 347.218
L616.846 347.252
L625.088 347.246
L630.583 347.232
L638.825 347.287
L649.815 347.287
L649.815 347.287" style="fill:none;stroke:#348abd;stroke-width:1.5;"/>
   </g>
   <g id="patch_3">
    <path d="
M73.3625 12.4948
L742.963 12.4948" style="fill:none;stroke:#ffffff;"/>
   </g>
   <g id="patch_4">
    <path d="
M742.962 347.295
L742.962 12.4948" style="fill:none;stroke:#ffffff;"/>
   </g>
   <g id="patch_5">
    <path d="
M73.3625 347.295
L742.963 347.295" style="fill:none;stroke:#ffffff;"/>
   </g>
   <g id="patch_6">
    <path d="
M73.3625 347.295
L73.3625 12.4948" style="fill:none;stroke:#ffffff;"/>
   </g>
   <g id="legend_1">
    <g id="patch_7">
     <path d="
M82.3625 129.09
L271.947 129.09
L271.947 21.4948
L82.3625 21.4948
L82.3625 129.09
z
" style="fill:#e5e5e5;stroke:#ffffff;stroke-width:0.5;"/>
    </g>
    <g id="line2d_63">
     <path d="
M94.9625 36.072
L120.162 36.072" style="fill:none;stroke:#e24a33;stroke-width:1.5;"/>
    </g>
    <g id="line2d_64"/>
    <g id="text_23">
     <!-- SMC Posterior -->
     <defs>
      <path d="
M9.8125 72.9062
L24.5156 72.9062
L43.1094 23.2969
L61.8125 72.9062
L76.5156 72.9062
L76.5156 0
L66.8906 0
L66.8906 64.0156
L48.0938 14.0156
L38.1875 14.0156
L19.3906 64.0156
L19.3906 0
L9.8125 0
z
" id="DejaVuSans-4d"/>
      <path d="
M56.2031 29.5938
L56.2031 25.2031
L14.8906 25.2031
Q15.4844 15.9219 20.4844 11.0625
Q25.4844 6.20312 34.4219 6.20312
Q39.5938 6.20312 44.4531 7.46875
Q49.3125 8.73438 54.1094 11.2812
L54.1094 2.78125
Q49.2656 0.734375 44.1875 -0.34375
Q39.1094 -1.42188 33.8906 -1.42188
Q20.7969 -1.42188 13.1562 6.1875
Q5.51562 13.8125 5.51562 26.8125
Q5.51562 40.2344 12.7656 48.1094
Q20.0156 56 32.3281 56
Q43.3594 56 49.7812 48.8906
Q56.2031 41.7969 56.2031 29.5938
M47.2188 32.2344
Q47.125 39.5938 43.0938 43.9844
Q39.0625 48.3906 32.4219 48.3906
Q24.9062 48.3906 20.3906 44.1406
Q15.875 39.8906 15.1875 32.1719
z
" id="DejaVuSans-65"/>
      <path d="
M30.6094 48.3906
Q23.3906 48.3906 19.1875 42.75
Q14.9844 37.1094 14.9844 27.2969
Q14.9844 17.4844 19.1562 11.8438
Q23.3438 6.20312 30.6094 6.20312
Q37.7969 6.20312 41.9844 11.8594
Q46.1875 17.5312 46.1875 27.2969
Q46.1875 37.0156 41.9844 42.7031
Q37.7969 48.3906 30.6094 48.3906
M30.6094 56
Q42.3281 56 49.0156 48.375
Q55.7188 40.7656 55.7188 27.2969
Q55.7188 13.875 49.0156 6.21875
Q42.3281 -1.42188 30.6094 -1.42188
Q18.8438 -1.42188 12.1719 6.21875
Q5.51562 13.875 5.51562 27.2969
Q5.51562 40.7656 12.1719 48.375
Q18.8438 56 30.6094 56" id="DejaVuSans-6f"/>
      <path d="
M9.42188 54.6875
L18.4062 54.6875
L18.4062 0
L9.42188 0
z

M9.42188 75.9844
L18.4062 75.9844
L18.4062 64.5938
L9.42188 64.5938
z
" id="DejaVuSans-69"/>
      <path id="DejaVuSans-20"/>
      <path d="
M64.4062 67.2812
L64.4062 56.8906
Q59.4219 61.5312 53.7812 63.8125
Q48.1406 66.1094 41.7969 66.1094
Q29.2969 66.1094 22.6562 58.4688
Q16.0156 50.8281 16.0156 36.375
Q16.0156 21.9688 22.6562 14.3281
Q29.2969 6.6875 41.7969 6.6875
Q48.1406 6.6875 53.7812 8.98438
Q59.4219 11.2812 64.4062 15.9219
L64.4062 5.60938
Q59.2344 2.09375 53.4375 0.328125
Q47.6562 -1.42188 41.2188 -1.42188
Q24.6562 -1.42188 15.125 8.70312
Q5.60938 18.8438 5.60938 36.375
Q5.60938 53.9531 15.125 64.0781
Q24.6562 74.2188 41.2188 74.2188
Q47.75 74.2188 53.5312 72.4844
Q59.3281 70.75 64.4062 67.2812" id="DejaVuSans-43"/>
      <path d="
M53.5156 70.5156
L53.5156 60.8906
Q47.9062 63.5781 42.9219 64.8906
Q37.9375 66.2188 33.2969 66.2188
Q25.25 66.2188 20.875 63.0938
Q16.5 59.9688 16.5 54.2031
Q16.5 49.3594 19.4062 46.8906
Q22.3125 44.4375 30.4219 42.9219
L36.375 41.7031
Q47.4062 39.5938 52.6562 34.2969
Q57.9062 29 57.9062 20.125
Q57.9062 9.51562 50.7969 4.04688
Q43.7031 -1.42188 29.9844 -1.42188
Q24.8125 -1.42188 18.9688 -0.25
Q13.1406 0.921875 6.89062 3.21875
L6.89062 13.375
Q12.8906 10.0156 18.6562 8.29688
Q24.4219 6.59375 29.9844 6.59375
Q38.4219 6.59375 43.0156 9.90625
Q47.6094 13.2344 47.6094 19.3906
Q47.6094 24.75 44.3125 27.7812
Q41.0156 30.8125 33.5 32.3281
L27.4844 33.5
Q16.4531 35.6875 11.5156 40.375
Q6.59375 45.0625 6.59375 53.4219
Q6.59375 63.0938 13.4062 68.6562
Q20.2188 74.2188 32.1719 74.2188
Q37.3125 74.2188 42.625 73.2812
Q47.9531 72.3594 53.5156 70.5156" id="DejaVuSans-53"/>
      <path d="
M18.3125 70.2188
L18.3125 54.6875
L36.8125 54.6875
L36.8125 47.7031
L18.3125 47.7031
L18.3125 18.0156
Q18.3125 11.3281 20.1406 9.42188
Q21.9688 7.51562 27.5938 7.51562
L36.8125 7.51562
L36.8125 0
L27.5938 0
Q17.1875 0 13.2344 3.875
Q9.28125 7.76562 9.28125 18.0156
L9.28125 47.7031
L2.6875 47.7031
L2.6875 54.6875
L9.28125 54.6875
L9.28125 70.2188
z
" id="DejaVuSans-74"/>
      <path d="
M19.6719 64.7969
L19.6719 37.4062
L32.0781 37.4062
Q38.9688 37.4062 42.7188 40.9688
Q46.4844 44.5312 46.4844 51.125
Q46.4844 57.6719 42.7188 61.2344
Q38.9688 64.7969 32.0781 64.7969
z

M9.8125 72.9062
L32.0781 72.9062
Q44.3438 72.9062 50.6094 67.3594
Q56.8906 61.8125 56.8906 51.125
Q56.8906 40.3281 50.6094 34.8125
Q44.3438 29.2969 32.0781 29.2969
L19.6719 29.2969
L19.6719 0
L9.8125 0
z
" id="DejaVuSans-50"/>
      <path d="
M44.2812 53.0781
L44.2812 44.5781
Q40.4844 46.5312 36.375 47.5
Q32.2812 48.4844 27.875 48.4844
Q21.1875 48.4844 17.8438 46.4375
Q14.5 44.3906 14.5 40.2812
Q14.5 37.1562 16.8906 35.375
Q19.2812 33.5938 26.5156 31.9844
L29.5938 31.2969
Q39.1562 29.25 43.1875 25.5156
Q47.2188 21.7812 47.2188 15.0938
Q47.2188 7.46875 41.1875 3.01562
Q35.1562 -1.42188 24.6094 -1.42188
Q20.2188 -1.42188 15.4531 -0.5625
Q10.6875 0.296875 5.42188 2
L5.42188 11.2812
Q10.4062 8.6875 15.2344 7.39062
Q20.0625 6.10938 24.8125 6.10938
Q31.1562 6.10938 34.5625 8.28125
Q37.9844 10.4531 37.9844 14.4062
Q37.9844 18.0625 35.5156 20.0156
Q33.0625 21.9688 24.7031 23.7812
L21.5781 24.5156
Q13.2344 26.2656 9.51562 29.9062
Q5.8125 33.5469 5.8125 39.8906
Q5.8125 47.6094 11.2812 51.7969
Q16.75 56 26.8125 56
Q31.7812 56 36.1719 55.2656
Q40.5781 54.5469 44.2812 53.0781" id="DejaVuSans-73"/>
      <path d="
M41.1094 46.2969
Q39.5938 47.1719 37.8125 47.5781
Q36.0312 48 33.8906 48
Q26.2656 48 22.1875 43.0469
Q18.1094 38.0938 18.1094 28.8125
L18.1094 0
L9.07812 0
L9.07812 54.6875
L18.1094 54.6875
L18.1094 46.1875
Q20.9531 51.1719 25.4844 53.5781
Q30.0312 56 36.5312 56
Q37.4531 56 38.5781 55.875
Q39.7031 55.7656 41.0625 55.5156
z
" id="DejaVuSans-72"/>
     </defs>
     <g transform="translate(139.9625 42.37203125)scale(0.18 -0.18)">
      <use xlink:href="#DejaVuSans-53"/>
      <use x="63.4765625" xlink:href="#DejaVuSans-4d"/>
      <use x="149.755859375" xlink:href="#DejaVuSans-43"/>
      <use x="219.580078125" xlink:href="#DejaVuSans-20"/>
      <use x="251.3671875" xlink:href="#DejaVuSans-50"/>
      <use x="308.044921875" xlink:href="#DejaVuSans-6f"/>
      <use x="369.2265625" xlink:href="#DejaVuSans-73"/>
      <use x="421.326171875" xlink:href="#DejaVuSans-74"/>
      <use x="460.53515625" xlink:href="#DejaVuSans-65"/>
      <use x="522.05859375" xlink:href="#DejaVuSans-72"/>
      <use x="563.171875" xlink:href="#DejaVuSans-69"/>
      <use x="590.955078125" xlink:href="#DejaVuSans-6f"/>
      <use x="652.13671875" xlink:href="#DejaVuSans-72"/>
     </g>
    </g>
    <g id="line2d_65">
     <path d="
M94.9625 62.4927
L120.162 62.4927" style="fill:none;stroke:#348abd;stroke-width:1.5;"/>
    </g>
    <g id="line2d_66"/>
    <g id="text_24">
     <!-- Bad Prior -->
     <defs>
      <path d="
M45.4062 46.3906
L45.4062 75.9844
L54.3906 75.9844
L54.3906 0
L45.4062 0
L45.4062 8.20312
Q42.5781 3.32812 38.25 0.953125
Q33.9375 -1.42188 27.875 -1.42188
Q17.9688 -1.42188 11.7344 6.48438
Q5.51562 14.4062 5.51562 27.2969
Q5.51562 40.1875 11.7344 48.0938
Q17.9688 56 27.875 56
Q33.9375 56 38.25 53.625
Q42.5781 51.2656 45.4062 46.3906
M14.7969 27.2969
Q14.7969 17.3906 18.875 11.75
Q22.9531 6.10938 30.0781 6.10938
Q37.2031 6.10938 41.2969 11.75
Q45.4062 17.3906 45.4062 27.2969
Q45.4062 37.2031 41.2969 42.8438
Q37.2031 48.4844 30.0781 48.4844
Q22.9531 48.4844 18.875 42.8438
Q14.7969 37.2031 14.7969 27.2969" id="DejaVuSans-64"/>
      <path d="
M19.6719 34.8125
L19.6719 8.10938
L35.5 8.10938
Q43.4531 8.10938 47.2812 11.4062
Q51.125 14.7031 51.125 21.4844
Q51.125 28.3281 47.2812 31.5625
Q43.4531 34.8125 35.5 34.8125
z

M19.6719 64.7969
L19.6719 42.8281
L34.2812 42.8281
Q41.5 42.8281 45.0312 45.5312
Q48.5781 48.25 48.5781 53.8125
Q48.5781 59.3281 45.0312 62.0625
Q41.5 64.7969 34.2812 64.7969
z

M9.8125 72.9062
L35.0156 72.9062
Q46.2969 72.9062 52.3906 68.2188
Q58.5 63.5312 58.5 54.8906
Q58.5 48.1875 55.375 44.2344
Q52.25 40.2812 46.1875 39.3125
Q53.4688 37.75 57.5 32.7812
Q61.5312 27.8281 61.5312 20.4062
Q61.5312 10.6406 54.8906 5.3125
Q48.25 0 35.9844 0
L9.8125 0
z
" id="DejaVuSans-42"/>
      <path d="
M34.2812 27.4844
Q23.3906 27.4844 19.1875 25
Q14.9844 22.5156 14.9844 16.5
Q14.9844 11.7188 18.1406 8.90625
Q21.2969 6.10938 26.7031 6.10938
Q34.1875 6.10938 38.7031 11.4062
Q43.2188 16.7031 43.2188 25.4844
L43.2188 27.4844
z

M52.2031 31.2031
L52.2031 0
L43.2188 0
L43.2188 8.29688
Q40.1406 3.32812 35.5469 0.953125
Q30.9531 -1.42188 24.3125 -1.42188
Q15.9219 -1.42188 10.9531 3.29688
Q6 8.01562 6 15.9219
Q6 25.1406 12.1719 29.8281
Q18.3594 34.5156 30.6094 34.5156
L43.2188 34.5156
L43.2188 35.4062
Q43.2188 41.6094 39.1406 45
Q35.0625 48.3906 27.6875 48.3906
Q23 48.3906 18.5469 47.2656
Q14.1094 46.1406 10.0156 43.8906
L10.0156 52.2031
Q14.9375 54.1094 19.5781 55.0469
Q24.2188 56 28.6094 56
Q40.4844 56 46.3438 49.8438
Q52.2031 43.7031 52.2031 31.2031" id="DejaVuSans-61"/>
     </defs>
     <g transform="translate(139.9625 68.79265625)scale(0.18 -0.18)">
      <use xlink:href="#DejaVuSans-42"/>
      <use x="68.603515625" xlink:href="#DejaVuSans-61"/>
      <use x="129.8828125" xlink:href="#DejaVuSans-64"/>
      <use x="193.359375" xlink:href="#DejaVuSans-20"/>
      <use x="225.146484375" xlink:href="#DejaVuSans-50"/>
      <use x="283.69921875" xlink:href="#DejaVuSans-72"/>
      <use x="324.8125" xlink:href="#DejaVuSans-69"/>
      <use x="352.595703125" xlink:href="#DejaVuSans-6f"/>
      <use x="413.77734375" xlink:href="#DejaVuSans-72"/>
     </g>
    </g>
    <g id="line2d_67">
     <path d="
M94.9625 88.9133
L107.562 88.9133
L120.162 88.9133" style="fill:none;stroke:#000000;stroke-dasharray:1.000000,3.000000;stroke-dashoffset:0.0;stroke-linecap:butt;stroke-width:1.5;"/>
    </g>
    <g id="text_25">
     <!-- True -->
     <defs>
      <path d="
M8.5 21.5781
L8.5 54.6875
L17.4844 54.6875
L17.4844 21.9219
Q17.4844 14.1562 20.5 10.2656
Q23.5312 6.39062 29.5938 6.39062
Q36.8594 6.39062 41.0781 11.0312
Q45.3125 15.6719 45.3125 23.6875
L45.3125 54.6875
L54.2969 54.6875
L54.2969 0
L45.3125 0
L45.3125 8.40625
Q42.0469 3.42188 37.7188 1
Q33.4062 -1.42188 27.6875 -1.42188
Q18.2656 -1.42188 13.375 4.4375
Q8.5 10.2969 8.5 21.5781
M31.1094 56
z
" id="DejaVuSans-75"/>
      <path d="
M-0.296875 72.9062
L61.375 72.9062
L61.375 64.5938
L35.5 64.5938
L35.5 0
L25.5938 0
L25.5938 64.5938
L-0.296875 64.5938
z
" id="DejaVuSans-54"/>
     </defs>
     <g transform="translate(139.9625 95.21328125)scale(0.18 -0.18)">
      <use xlink:href="#DejaVuSans-54"/>
      <use x="46.333984375" xlink:href="#DejaVuSans-72"/>
      <use x="87.447265625" xlink:href="#DejaVuSans-75"/>
      <use x="150.826171875" xlink:href="#DejaVuSans-65"/>
     </g>
    </g>
    <g id="line2d_68">
     <path d="
M94.9625 115.334
L107.562 115.334
L120.162 115.334" style="fill:none;stroke:#000000;stroke-width:1.5;"/>
    </g>
    <g id="text_26">
     <!-- LSF Estimate -->
     <defs>
      <path d="
M9.8125 72.9062
L55.9062 72.9062
L55.9062 64.5938
L19.6719 64.5938
L19.6719 43.0156
L54.3906 43.0156
L54.3906 34.7188
L19.6719 34.7188
L19.6719 8.29688
L56.7812 8.29688
L56.7812 0
L9.8125 0
z
" id="DejaVuSans-45"/>
      <path d="
M9.8125 72.9062
L51.7031 72.9062
L51.7031 64.5938
L19.6719 64.5938
L19.6719 43.1094
L48.5781 43.1094
L48.5781 34.8125
L19.6719 34.8125
L19.6719 0
L9.8125 0
z
" id="DejaVuSans-46"/>
      <path d="
M52 44.1875
Q55.375 50.25 60.0625 53.125
Q64.75 56 71.0938 56
Q79.6406 56 84.2812 50.0156
Q88.9219 44.0469 88.9219 33.0156
L88.9219 0
L79.8906 0
L79.8906 32.7188
Q79.8906 40.5781 77.0938 44.375
Q74.3125 48.1875 68.6094 48.1875
Q61.625 48.1875 57.5625 43.5469
Q53.5156 38.9219 53.5156 30.9062
L53.5156 0
L44.4844 0
L44.4844 32.7188
Q44.4844 40.625 41.7031 44.4062
Q38.9219 48.1875 33.1094 48.1875
Q26.2188 48.1875 22.1562 43.5312
Q18.1094 38.875 18.1094 30.9062
L18.1094 0
L9.07812 0
L9.07812 54.6875
L18.1094 54.6875
L18.1094 46.1875
Q21.1875 51.2188 25.4844 53.6094
Q29.7812 56 35.6875 56
Q41.6562 56 45.8281 52.9688
Q50 49.9531 52 44.1875" id="DejaVuSans-6d"/>
      <path d="
M9.8125 72.9062
L19.6719 72.9062
L19.6719 8.29688
L55.1719 8.29688
L55.1719 0
L9.8125 0
z
" id="DejaVuSans-4c"/>
     </defs>
     <g transform="translate(139.9625 121.63390625)scale(0.18 -0.18)">
      <use xlink:href="#DejaVuSans-4c"/>
      <use x="55.712890625" xlink:href="#DejaVuSans-53"/>
      <use x="119.189453125" xlink:href="#DejaVuSans-46"/>
      <use x="176.708984375" xlink:href="#DejaVuSans-20"/>
      <use x="208.49609375" xlink:href="#DejaVuSans-45"/>
      <use x="271.6796875" xlink:href="#DejaVuSans-73"/>
      <use x="323.779296875" xlink:href="#DejaVuSans-74"/>
      <use x="362.98828125" xlink:href="#DejaVuSans-69"/>
      <use x="390.771484375" xlink:href="#DejaVuSans-6d"/>
      <use x="488.18359375" xlink:href="#DejaVuSans-61"/>
      <use x="549.462890625" xlink:href="#DejaVuSans-74"/>
      <use x="588.671875" xlink:href="#DejaVuSans-65"/>
     </g>
    </g>
   </g>
  </g>
 </g>
 <defs>
  <clipPath id="p9489754398">
   <rect height="334.8" width="669.6" x="73.3625" y="12.49484375"/>
  </clipPath>
 </defs>
</svg>
