<?xml version="1.0" encoding="utf-8" standalone="no"?>
<!DOCTYPE svg PUBLIC "-//W3C//DTD SVG 1.1//EN"
  "http://www.w3.org/Graphics/SVG/1.1/DTD/svg11.dtd">
<!-- Created with matplotlib (http://matplotlib.org/) -->
<svg height="453pt" version="1.1" viewBox="0 0 694 453" width="694pt" xmlns="http://www.w3.org/2000/svg" xmlns:xlink="http://www.w3.org/1999/xlink">
 <defs>
  <style type="text/css">
*{stroke-linecap:butt;stroke-linejoin:round;}
  </style>
 </defs>
 <g id="figure_1">
  <g id="patch_1">
   <path d="
M0 453.68
L694.665 453.68
L694.665 0
L0 0
z
" style="fill:#ffffff;"/>
  </g>
  <g id="axes_1">
   <g id="patch_2">
    <path d="
M65.6634 404.575
L679.463 404.575
L679.463 13.9747
L65.6634 13.9747
z
" style="fill:#ffffff;"/>
   </g>
   <g id="line2d_1">
    <defs>
     <path d="
M-5 5
L5 -5
M-5 -5
L5 5" id="me957a56438" style="stroke:#000000;stroke-width:0.5;"/>
    </defs>
    <g clip-path="url(#peb1b15205a)">
     <use style="stroke:#000000;stroke-width:0.5;" x="79.3034375" xlink:href="#me957a56438" y="17.2388570202"/>
     <use style="stroke:#000000;stroke-width:0.5;" x="215.7034375" xlink:href="#me957a56438" y="113.044032946"/>
     <use style="stroke:#000000;stroke-width:0.5;" x="352.1034375" xlink:href="#me957a56438" y="221.289495532"/>
     <use style="stroke:#000000;stroke-width:0.5;" x="488.5034375" xlink:href="#me957a56438" y="290.978333079"/>
     <use style="stroke:#000000;stroke-width:0.5;" x="624.9034375" xlink:href="#me957a56438" y="375.611115696"/>
    </g>
   </g>
   <g id="line2d_2">
    <path clip-path="url(#peb1b15205a)" d="
M79.3034 25.9445
L215.703 127.665
L352.103 220.995
L488.503 306.627
L624.903 385.196" style="fill:none;stroke:#000000;stroke-dasharray:6.000000,6.000000;stroke-dashoffset:0.0;stroke-width:1.5;"/>
   </g>
   <g id="line2d_3">
    <defs>
     <path d="
M0 2.5
C0.663008 2.5 1.29895 2.23658 1.76777 1.76777
C2.23658 1.29895 2.5 0.663008 2.5 0
C2.5 -0.663008 2.23658 -1.29895 1.76777 -1.76777
C1.29895 -2.23658 0.663008 -2.5 0 -2.5
C-0.663008 -2.5 -1.29895 -2.23658 -1.76777 -1.76777
C-2.23658 -1.29895 -2.5 -0.663008 -2.5 0
C-2.5 0.663008 -2.23658 1.29895 -1.76777 1.76777
C-1.29895 2.23658 -0.663008 2.5 0 2.5
z
" id="m1c71f79889" style="stroke:#000000;stroke-width:0.5;"/>
    </defs>
    <g clip-path="url(#peb1b15205a)">
     <use style="stroke:#000000;stroke-width:0.5;" x="79.3034375" xlink:href="#m1c71f79889" y="19.9614027762"/>
     <use style="stroke:#000000;stroke-width:0.5;" x="215.7034375" xlink:href="#m1c71f79889" y="94.1586277018"/>
     <use style="stroke:#000000;stroke-width:0.5;" x="352.1034375" xlink:href="#m1c71f79889" y="161.607029952"/>
     <use style="stroke:#000000;stroke-width:0.5;" x="488.5034375" xlink:href="#m1c71f79889" y="221.430352261"/>
     <use style="stroke:#000000;stroke-width:0.5;" x="624.9034375" xlink:href="#m1c71f79889" y="294.799910871"/>
    </g>
   </g>
   <g id="line2d_4">
    <path clip-path="url(#peb1b15205a)" d="
M79.3034 22.6878
L215.703 94.3587
L352.103 161.875
L488.503 225.478
L624.903 285.395" style="fill:none;stroke:#000000;stroke-linecap:square;stroke-width:1.5;"/>
   </g>
   <g id="matplotlib.axis_1">
    <g id="xtick_1">
     <g id="line2d_5">
      <defs>
       <path d="
M0 0
L0 -4" id="m93b0483c22" style="stroke:#000000;stroke-width:0.5;"/>
      </defs>
      <g>
       <use style="stroke:#000000;stroke-width:0.5;" x="65.6634375" xlink:href="#m93b0483c22" y="404.5746875"/>
      </g>
     </g>
     <g id="line2d_6">
      <defs>
       <path d="
M0 0
L0 4" id="m741efc42ff" style="stroke:#000000;stroke-width:0.5;"/>
      </defs>
      <g>
       <use style="stroke:#000000;stroke-width:0.5;" x="65.6634375" xlink:href="#m741efc42ff" y="13.9746875"/>
      </g>
     </g>
     <g id="text_1">
      <!-- 0 -->
      <defs>
       <path d="
M31.7812 66.4062
Q24.1719 66.4062 20.3281 58.9062
Q16.5 51.4219 16.5 36.375
Q16.5 21.3906 20.3281 13.8906
Q24.1719 6.39062 31.7812 6.39062
Q39.4531 6.39062 43.2812 13.8906
Q47.125 21.3906 47.125 36.375
Q47.125 51.4219 43.2812 58.9062
Q39.4531 66.4062 31.7812 66.4062
M31.7812 74.2188
Q44.0469 74.2188 50.5156 64.5156
Q56.9844 54.8281 56.9844 36.375
Q56.9844 17.9688 50.5156 8.26562
Q44.0469 -1.42188 31.7812 -1.42188
Q19.5312 -1.42188 13.0625 8.26562
Q6.59375 17.9688 6.59375 36.375
Q6.59375 54.8281 13.0625 64.5156
Q19.5312 74.2188 31.7812 74.2188" id="BitstreamVeraSans-Roman-30"/>
      </defs>
      <g transform="translate(62.13609375 419.2125)scale(0.14 -0.14)">
       <use xlink:href="#BitstreamVeraSans-Roman-30"/>
      </g>
     </g>
    </g>
    <g id="xtick_2">
     <g id="line2d_7">
      <g>
       <use style="stroke:#000000;stroke-width:0.5;" x="133.8634375" xlink:href="#m93b0483c22" y="404.5746875"/>
      </g>
     </g>
     <g id="line2d_8">
      <g>
       <use style="stroke:#000000;stroke-width:0.5;" x="133.8634375" xlink:href="#m741efc42ff" y="13.9746875"/>
      </g>
     </g>
     <g id="text_2">
      <!-- 10 -->
      <defs>
       <path d="
M12.4062 8.29688
L28.5156 8.29688
L28.5156 63.9219
L10.9844 60.4062
L10.9844 69.3906
L28.4219 72.9062
L38.2812 72.9062
L38.2812 8.29688
L54.3906 8.29688
L54.3906 0
L12.4062 0
z
" id="BitstreamVeraSans-Roman-31"/>
      </defs>
      <g transform="translate(126.1896875 419.2125)scale(0.14 -0.14)">
       <use xlink:href="#BitstreamVeraSans-Roman-31"/>
       <use x="63.623046875" xlink:href="#BitstreamVeraSans-Roman-30"/>
      </g>
     </g>
    </g>
    <g id="xtick_3">
     <g id="line2d_9">
      <g>
       <use style="stroke:#000000;stroke-width:0.5;" x="202.0634375" xlink:href="#m93b0483c22" y="404.5746875"/>
      </g>
     </g>
     <g id="line2d_10">
      <g>
       <use style="stroke:#000000;stroke-width:0.5;" x="202.0634375" xlink:href="#m741efc42ff" y="13.9746875"/>
      </g>
     </g>
     <g id="text_3">
      <!-- 20 -->
      <defs>
       <path d="
M19.1875 8.29688
L53.6094 8.29688
L53.6094 0
L7.32812 0
L7.32812 8.29688
Q12.9375 14.1094 22.625 23.8906
Q32.3281 33.6875 34.8125 36.5312
Q39.5469 41.8438 41.4219 45.5312
Q43.3125 49.2188 43.3125 52.7812
Q43.3125 58.5938 39.2344 62.25
Q35.1562 65.9219 28.6094 65.9219
Q23.9688 65.9219 18.8125 64.3125
Q13.6719 62.7031 7.8125 59.4219
L7.8125 69.3906
Q13.7656 71.7812 18.9375 73
Q24.125 74.2188 28.4219 74.2188
Q39.75 74.2188 46.4844 68.5469
Q53.2188 62.8906 53.2188 53.4219
Q53.2188 48.9219 51.5312 44.8906
Q49.8594 40.875 45.4062 35.4062
Q44.1875 33.9844 37.6406 27.2188
Q31.1094 20.4531 19.1875 8.29688" id="BitstreamVeraSans-Roman-32"/>
      </defs>
      <g transform="translate(194.13375 419.2125)scale(0.14 -0.14)">
       <use xlink:href="#BitstreamVeraSans-Roman-32"/>
       <use x="63.623046875" xlink:href="#BitstreamVeraSans-Roman-30"/>
      </g>
     </g>
    </g>
    <g id="xtick_4">
     <g id="line2d_11">
      <g>
       <use style="stroke:#000000;stroke-width:0.5;" x="270.2634375" xlink:href="#m93b0483c22" y="404.5746875"/>
      </g>
     </g>
     <g id="line2d_12">
      <g>
       <use style="stroke:#000000;stroke-width:0.5;" x="270.2634375" xlink:href="#m741efc42ff" y="13.9746875"/>
      </g>
     </g>
     <g id="text_4">
      <!-- 30 -->
      <defs>
       <path d="
M40.5781 39.3125
Q47.6562 37.7969 51.625 33
Q55.6094 28.2188 55.6094 21.1875
Q55.6094 10.4062 48.1875 4.48438
Q40.7656 -1.42188 27.0938 -1.42188
Q22.5156 -1.42188 17.6562 -0.515625
Q12.7969 0.390625 7.625 2.20312
L7.625 11.7188
Q11.7188 9.32812 16.5938 8.10938
Q21.4844 6.89062 26.8125 6.89062
Q36.0781 6.89062 40.9375 10.5469
Q45.7969 14.2031 45.7969 21.1875
Q45.7969 27.6406 41.2812 31.2656
Q36.7656 34.9062 28.7188 34.9062
L20.2188 34.9062
L20.2188 43.0156
L29.1094 43.0156
Q36.375 43.0156 40.2344 45.9219
Q44.0938 48.8281 44.0938 54.2969
Q44.0938 59.9062 40.1094 62.9062
Q36.1406 65.9219 28.7188 65.9219
Q24.6562 65.9219 20.0156 65.0312
Q15.375 64.1562 9.8125 62.3125
L9.8125 71.0938
Q15.4375 72.6562 20.3438 73.4375
Q25.25 74.2188 29.5938 74.2188
Q40.8281 74.2188 47.3594 69.1094
Q53.9062 64.0156 53.9062 55.3281
Q53.9062 49.2656 50.4375 45.0938
Q46.9688 40.9219 40.5781 39.3125" id="BitstreamVeraSans-Roman-33"/>
      </defs>
      <g transform="translate(262.35453125 419.2125)scale(0.14 -0.14)">
       <use xlink:href="#BitstreamVeraSans-Roman-33"/>
       <use x="63.623046875" xlink:href="#BitstreamVeraSans-Roman-30"/>
      </g>
     </g>
    </g>
    <g id="xtick_5">
     <g id="line2d_13">
      <g>
       <use style="stroke:#000000;stroke-width:0.5;" x="338.4634375" xlink:href="#m93b0483c22" y="404.5746875"/>
      </g>
     </g>
     <g id="line2d_14">
      <g>
       <use style="stroke:#000000;stroke-width:0.5;" x="338.4634375" xlink:href="#m741efc42ff" y="13.9746875"/>
      </g>
     </g>
     <g id="text_5">
      <!-- 40 -->
      <defs>
       <path d="
M37.7969 64.3125
L12.8906 25.3906
L37.7969 25.3906
z

M35.2031 72.9062
L47.6094 72.9062
L47.6094 25.3906
L58.0156 25.3906
L58.0156 17.1875
L47.6094 17.1875
L47.6094 0
L37.7969 0
L37.7969 17.1875
L4.89062 17.1875
L4.89062 26.7031
z
" id="BitstreamVeraSans-Roman-34"/>
      </defs>
      <g transform="translate(330.363125 419.2125)scale(0.14 -0.14)">
       <use xlink:href="#BitstreamVeraSans-Roman-34"/>
       <use x="63.623046875" xlink:href="#BitstreamVeraSans-Roman-30"/>
      </g>
     </g>
    </g>
    <g id="xtick_6">
     <g id="line2d_15">
      <g>
       <use style="stroke:#000000;stroke-width:0.5;" x="406.6634375" xlink:href="#m93b0483c22" y="404.5746875"/>
      </g>
     </g>
     <g id="line2d_16">
      <g>
       <use style="stroke:#000000;stroke-width:0.5;" x="406.6634375" xlink:href="#m741efc42ff" y="13.9746875"/>
      </g>
     </g>
     <g id="text_6">
      <!-- 50 -->
      <defs>
       <path d="
M10.7969 72.9062
L49.5156 72.9062
L49.5156 64.5938
L19.8281 64.5938
L19.8281 46.7344
Q21.9688 47.4688 24.1094 47.8281
Q26.2656 48.1875 28.4219 48.1875
Q40.625 48.1875 47.75 41.5
Q54.8906 34.8125 54.8906 23.3906
Q54.8906 11.625 47.5625 5.09375
Q40.2344 -1.42188 26.9062 -1.42188
Q22.3125 -1.42188 17.5469 -0.640625
Q12.7969 0.140625 7.71875 1.70312
L7.71875 11.625
Q12.1094 9.23438 16.7969 8.0625
Q21.4844 6.89062 26.7031 6.89062
Q35.1562 6.89062 40.0781 11.3281
Q45.0156 15.7656 45.0156 23.3906
Q45.0156 31 40.0781 35.4375
Q35.1562 39.8906 26.7031 39.8906
Q22.75 39.8906 18.8125 39.0156
Q14.8906 38.1406 10.7969 36.2812
z
" id="BitstreamVeraSans-Roman-35"/>
      </defs>
      <g transform="translate(398.76109375 419.2125)scale(0.14 -0.14)">
       <use xlink:href="#BitstreamVeraSans-Roman-35"/>
       <use x="63.623046875" xlink:href="#BitstreamVeraSans-Roman-30"/>
      </g>
     </g>
    </g>
    <g id="xtick_7">
     <g id="line2d_17">
      <g>
       <use style="stroke:#000000;stroke-width:0.5;" x="474.8634375" xlink:href="#m93b0483c22" y="404.5746875"/>
      </g>
     </g>
     <g id="line2d_18">
      <g>
       <use style="stroke:#000000;stroke-width:0.5;" x="474.8634375" xlink:href="#m741efc42ff" y="13.9746875"/>
      </g>
     </g>
     <g id="text_7">
      <!-- 60 -->
      <defs>
       <path d="
M33.0156 40.375
Q26.375 40.375 22.4844 35.8281
Q18.6094 31.2969 18.6094 23.3906
Q18.6094 15.5312 22.4844 10.9531
Q26.375 6.39062 33.0156 6.39062
Q39.6562 6.39062 43.5312 10.9531
Q47.4062 15.5312 47.4062 23.3906
Q47.4062 31.2969 43.5312 35.8281
Q39.6562 40.375 33.0156 40.375
M52.5938 71.2969
L52.5938 62.3125
Q48.875 64.0625 45.0938 64.9844
Q41.3125 65.9219 37.5938 65.9219
Q27.8281 65.9219 22.6719 59.3281
Q17.5312 52.7344 16.7969 39.4062
Q19.6719 43.6562 24.0156 45.9219
Q28.375 48.1875 33.5938 48.1875
Q44.5781 48.1875 50.9531 41.5156
Q57.3281 34.8594 57.3281 23.3906
Q57.3281 12.1562 50.6875 5.35938
Q44.0469 -1.42188 33.0156 -1.42188
Q20.3594 -1.42188 13.6719 8.26562
Q6.98438 17.9688 6.98438 36.375
Q6.98438 53.6562 15.1875 63.9375
Q23.3906 74.2188 37.2031 74.2188
Q40.9219 74.2188 44.7031 73.4844
Q48.4844 72.75 52.5938 71.2969" id="BitstreamVeraSans-Roman-36"/>
      </defs>
      <g transform="translate(466.9096875 419.2125)scale(0.14 -0.14)">
       <use xlink:href="#BitstreamVeraSans-Roman-36"/>
       <use x="63.623046875" xlink:href="#BitstreamVeraSans-Roman-30"/>
      </g>
     </g>
    </g>
    <g id="xtick_8">
     <g id="line2d_19">
      <g>
       <use style="stroke:#000000;stroke-width:0.5;" x="543.0634375" xlink:href="#m93b0483c22" y="404.5746875"/>
      </g>
     </g>
     <g id="line2d_20">
      <g>
       <use style="stroke:#000000;stroke-width:0.5;" x="543.0634375" xlink:href="#m741efc42ff" y="13.9746875"/>
      </g>
     </g>
     <g id="text_8">
      <!-- 70 -->
      <defs>
       <path d="
M8.20312 72.9062
L55.0781 72.9062
L55.0781 68.7031
L28.6094 0
L18.3125 0
L43.2188 64.5938
L8.20312 64.5938
z
" id="BitstreamVeraSans-Roman-37"/>
      </defs>
      <g transform="translate(535.195 419.2125)scale(0.14 -0.14)">
       <use xlink:href="#BitstreamVeraSans-Roman-37"/>
       <use x="63.623046875" xlink:href="#BitstreamVeraSans-Roman-30"/>
      </g>
     </g>
    </g>
    <g id="xtick_9">
     <g id="line2d_21">
      <g>
       <use style="stroke:#000000;stroke-width:0.5;" x="611.2634375" xlink:href="#m93b0483c22" y="404.5746875"/>
      </g>
     </g>
     <g id="line2d_22">
      <g>
       <use style="stroke:#000000;stroke-width:0.5;" x="611.2634375" xlink:href="#m741efc42ff" y="13.9746875"/>
      </g>
     </g>
     <g id="text_9">
      <!-- 80 -->
      <defs>
       <path d="
M31.7812 34.625
Q24.75 34.625 20.7188 30.8594
Q16.7031 27.0938 16.7031 20.5156
Q16.7031 13.9219 20.7188 10.1562
Q24.75 6.39062 31.7812 6.39062
Q38.8125 6.39062 42.8594 10.1719
Q46.9219 13.9688 46.9219 20.5156
Q46.9219 27.0938 42.8906 30.8594
Q38.875 34.625 31.7812 34.625
M21.9219 38.8125
Q15.5781 40.375 12.0312 44.7188
Q8.5 49.0781 8.5 55.3281
Q8.5 64.0625 14.7188 69.1406
Q20.9531 74.2188 31.7812 74.2188
Q42.6719 74.2188 48.875 69.1406
Q55.0781 64.0625 55.0781 55.3281
Q55.0781 49.0781 51.5312 44.7188
Q48 40.375 41.7031 38.8125
Q48.8281 37.1562 52.7969 32.3125
Q56.7812 27.4844 56.7812 20.5156
Q56.7812 9.90625 50.3125 4.23438
Q43.8438 -1.42188 31.7812 -1.42188
Q19.7344 -1.42188 13.25 4.23438
Q6.78125 9.90625 6.78125 20.5156
Q6.78125 27.4844 10.7812 32.3125
Q14.7969 37.1562 21.9219 38.8125
M18.3125 54.3906
Q18.3125 48.7344 21.8438 45.5625
Q25.3906 42.3906 31.7812 42.3906
Q38.1406 42.3906 41.7188 45.5625
Q45.3125 48.7344 45.3125 54.3906
Q45.3125 60.0625 41.7188 63.2344
Q38.1406 66.4062 31.7812 66.4062
Q25.3906 66.4062 21.8438 63.2344
Q18.3125 60.0625 18.3125 54.3906" id="BitstreamVeraSans-Roman-38"/>
      </defs>
      <g transform="translate(603.29546875 419.2125)scale(0.14 -0.14)">
       <use xlink:href="#BitstreamVeraSans-Roman-38"/>
       <use x="63.623046875" xlink:href="#BitstreamVeraSans-Roman-30"/>
      </g>
     </g>
    </g>
    <g id="xtick_10">
     <g id="line2d_23">
      <g>
       <use style="stroke:#000000;stroke-width:0.5;" x="679.4634375" xlink:href="#m93b0483c22" y="404.5746875"/>
      </g>
     </g>
     <g id="line2d_24">
      <g>
       <use style="stroke:#000000;stroke-width:0.5;" x="679.4634375" xlink:href="#m741efc42ff" y="13.9746875"/>
      </g>
     </g>
     <g id="text_10">
      <!-- 90 -->
      <defs>
       <path d="
M10.9844 1.51562
L10.9844 10.5
Q14.7031 8.73438 18.5 7.8125
Q22.3125 6.89062 25.9844 6.89062
Q35.75 6.89062 40.8906 13.4531
Q46.0469 20.0156 46.7812 33.4062
Q43.9531 29.2031 39.5938 26.9531
Q35.25 24.7031 29.9844 24.7031
Q19.0469 24.7031 12.6719 31.3125
Q6.29688 37.9375 6.29688 49.4219
Q6.29688 60.6406 12.9375 67.4219
Q19.5781 74.2188 30.6094 74.2188
Q43.2656 74.2188 49.9219 64.5156
Q56.5938 54.8281 56.5938 36.375
Q56.5938 19.1406 48.4062 8.85938
Q40.2344 -1.42188 26.4219 -1.42188
Q22.7031 -1.42188 18.8906 -0.6875
Q15.0938 0.046875 10.9844 1.51562
M30.6094 32.4219
Q37.25 32.4219 41.125 36.9531
Q45.0156 41.5 45.0156 49.4219
Q45.0156 57.2812 41.125 61.8438
Q37.25 66.4062 30.6094 66.4062
Q23.9688 66.4062 20.0938 61.8438
Q16.2188 57.2812 16.2188 49.4219
Q16.2188 41.5 20.0938 36.9531
Q23.9688 32.4219 30.6094 32.4219" id="BitstreamVeraSans-Roman-39"/>
      </defs>
      <g transform="translate(671.4615625 419.2125)scale(0.14 -0.14)">
       <use xlink:href="#BitstreamVeraSans-Roman-39"/>
       <use x="63.623046875" xlink:href="#BitstreamVeraSans-Roman-30"/>
      </g>
     </g>
    </g>
    <g id="text_11">
     <!-- $m$ -->
     <defs>
      <path d="
M7.71875 1.70312
Q7.71875 2.29688 7.8125 2.59375
L15.2812 32.4219
Q16.0156 35.2031 16.0156 37.3125
Q16.0156 41.6094 13.0938 41.6094
Q9.96875 41.6094 8.45312 37.8594
Q6.9375 34.125 5.51562 28.4219
Q5.51562 28.125 5.21875 27.9531
Q4.9375 27.7812 4.6875 27.7812
L3.51562 27.7812
Q3.17188 27.7812 2.92188 28.1406
Q2.6875 28.5156 2.6875 28.8125
Q3.76562 33.1562 4.76562 36.1719
Q5.76562 39.2031 7.89062 41.6875
Q10.0156 44.1875 13.1875 44.1875
Q16.9375 44.1875 19.8125 41.8125
Q22.7031 39.4531 22.7031 35.7969
Q25.6875 39.7031 29.6875 41.9375
Q33.6875 44.1875 38.1875 44.1875
Q42.9219 44.1875 46.3594 41.7656
Q49.8125 39.3594 49.8125 34.9062
Q52.875 39.2656 57 41.7188
Q61.1406 44.1875 66.0156 44.1875
Q71.1875 44.1875 74.3281 41.375
Q77.4844 38.5781 77.4844 33.4062
Q77.4844 29.2969 75.6562 23.4844
Q73.8281 17.6719 71.0938 10.5
Q69.6719 7.03125 69.6719 4.5
Q69.6719 1.51562 72.0156 1.51562
Q75.9219 1.51562 78.5156 5.70312
Q81.1094 9.90625 82.1719 14.7031
Q82.4688 15.2812 83.0156 15.2812
L84.1875 15.2812
Q84.5781 15.2812 84.8438 15.0156
Q85.1094 14.75 85.1094 14.4062
Q85.1094 14.3125 85.0156 14.1094
Q83.6406 8.45312 80.25 3.65625
Q76.8594 -1.125 71.7812 -1.125
Q68.2656 -1.125 65.7656 1.29688
Q63.2812 3.71875 63.2812 7.17188
Q63.2812 8.9375 64.1094 11.0781
Q66.9375 18.6094 68.8125 24.5156
Q70.7031 30.4219 70.7031 34.9062
Q70.7031 37.7031 69.5781 39.6562
Q68.4531 41.6094 65.8281 41.6094
Q60.3594 41.6094 56.3438 38.25
Q52.3438 34.9062 49.4219 29.3906
Q49.2188 28.4219 49.125 27.875
L42.6719 2.20312
Q42.3281 0.828125 41.125 -0.140625
Q39.9375 -1.125 38.4844 -1.125
Q37.3125 -1.125 36.4062 -0.34375
Q35.5 0.4375 35.5 1.70312
Q35.5 2.29688 35.5938 2.59375
L42 28.0781
Q43.0156 32.1719 43.0156 34.9062
Q43.0156 37.7031 41.8594 39.6562
Q40.7188 41.6094 37.9844 41.6094
Q34.3281 41.6094 31.25 39.9844
Q28.1719 38.375 25.875 35.7188
Q23.5781 33.0625 21.6875 29.3906
L14.8906 2.20312
Q14.5469 0.828125 13.3438 -0.140625
Q12.1562 -1.125 10.6875 -1.125
Q9.46875 -1.125 8.59375 -0.34375
Q7.71875 0.4375 7.71875 1.70312" id="Cmmi10-6d"/>
     </defs>
     <g transform="translate(363.7634375 442.3209375)scale(0.2 -0.2)">
      <use transform="translate(0.0 0.8125)" xlink:href="#Cmmi10-6d"/>
     </g>
    </g>
   </g>
   <g id="matplotlib.axis_2">
    <g id="ytick_1">
     <g id="line2d_25">
      <defs>
       <path d="
M0 0
L4 0" id="m728421d6d4" style="stroke:#000000;stroke-width:0.5;"/>
      </defs>
      <g>
       <use style="stroke:#000000;stroke-width:0.5;" x="65.6634375" xlink:href="#m728421d6d4" y="404.5746875"/>
      </g>
     </g>
     <g id="line2d_26">
      <defs>
       <path d="
M0 0
L-4 0" id="mcb0005524f" style="stroke:#000000;stroke-width:0.5;"/>
      </defs>
      <g>
       <use style="stroke:#000000;stroke-width:0.5;" x="679.4634375" xlink:href="#mcb0005524f" y="404.5746875"/>
      </g>
     </g>
     <g id="text_12">
      <!-- 0.72 -->
      <defs>
       <path d="
M10.6875 12.4062
L21 12.4062
L21 0
L10.6875 0
z
" id="BitstreamVeraSans-Roman-2e"/>
      </defs>
      <g transform="translate(32.816875 408.4378125)scale(0.14 -0.14)">
       <use xlink:href="#BitstreamVeraSans-Roman-30"/>
       <use x="63.623046875" xlink:href="#BitstreamVeraSans-Roman-2e"/>
       <use x="95.41015625" xlink:href="#BitstreamVeraSans-Roman-37"/>
       <use x="159.033203125" xlink:href="#BitstreamVeraSans-Roman-32"/>
      </g>
     </g>
    </g>
    <g id="ytick_2">
     <g id="line2d_27">
      <g>
       <use style="stroke:#000000;stroke-width:0.5;" x="65.6634375" xlink:href="#m728421d6d4" y="326.4546875"/>
      </g>
     </g>
     <g id="line2d_28">
      <g>
       <use style="stroke:#000000;stroke-width:0.5;" x="679.4634375" xlink:href="#mcb0005524f" y="326.4546875"/>
      </g>
     </g>
     <g id="text_13">
      <!-- 0.74 -->
      <g transform="translate(32.2 330.3178125)scale(0.14 -0.14)">
       <use xlink:href="#BitstreamVeraSans-Roman-30"/>
       <use x="63.623046875" xlink:href="#BitstreamVeraSans-Roman-2e"/>
       <use x="95.41015625" xlink:href="#BitstreamVeraSans-Roman-37"/>
       <use x="159.033203125" xlink:href="#BitstreamVeraSans-Roman-34"/>
      </g>
     </g>
    </g>
    <g id="ytick_3">
     <g id="line2d_29">
      <g>
       <use style="stroke:#000000;stroke-width:0.5;" x="65.6634375" xlink:href="#m728421d6d4" y="248.3346875"/>
      </g>
     </g>
     <g id="line2d_30">
      <g>
       <use style="stroke:#000000;stroke-width:0.5;" x="679.4634375" xlink:href="#mcb0005524f" y="248.3346875"/>
      </g>
     </g>
     <g id="text_14">
      <!-- 0.76 -->
      <g transform="translate(32.29625 252.1978125)scale(0.14 -0.14)">
       <use xlink:href="#BitstreamVeraSans-Roman-30"/>
       <use x="63.623046875" xlink:href="#BitstreamVeraSans-Roman-2e"/>
       <use x="95.41015625" xlink:href="#BitstreamVeraSans-Roman-37"/>
       <use x="159.033203125" xlink:href="#BitstreamVeraSans-Roman-36"/>
      </g>
     </g>
    </g>
    <g id="ytick_4">
     <g id="line2d_31">
      <g>
       <use style="stroke:#000000;stroke-width:0.5;" x="65.6634375" xlink:href="#m728421d6d4" y="170.2146875"/>
      </g>
     </g>
     <g id="line2d_32">
      <g>
       <use style="stroke:#000000;stroke-width:0.5;" x="679.4634375" xlink:href="#mcb0005524f" y="170.2146875"/>
      </g>
     </g>
     <g id="text_15">
      <!-- 0.78 -->
      <g transform="translate(32.3728125 174.0778125)scale(0.14 -0.14)">
       <use xlink:href="#BitstreamVeraSans-Roman-30"/>
       <use x="63.623046875" xlink:href="#BitstreamVeraSans-Roman-2e"/>
       <use x="95.41015625" xlink:href="#BitstreamVeraSans-Roman-37"/>
       <use x="159.033203125" xlink:href="#BitstreamVeraSans-Roman-38"/>
      </g>
     </g>
    </g>
    <g id="ytick_5">
     <g id="line2d_33">
      <g>
       <use style="stroke:#000000;stroke-width:0.5;" x="65.6634375" xlink:href="#m728421d6d4" y="92.0946875"/>
      </g>
     </g>
     <g id="line2d_34">
      <g>
       <use style="stroke:#000000;stroke-width:0.5;" x="679.4634375" xlink:href="#mcb0005524f" y="92.0946875"/>
      </g>
     </g>
     <g id="text_16">
      <!-- 0.80 -->
      <g transform="translate(32.344375 95.9578125)scale(0.14 -0.14)">
       <use xlink:href="#BitstreamVeraSans-Roman-30"/>
       <use x="63.623046875" xlink:href="#BitstreamVeraSans-Roman-2e"/>
       <use x="95.41015625" xlink:href="#BitstreamVeraSans-Roman-38"/>
       <use x="159.033203125" xlink:href="#BitstreamVeraSans-Roman-30"/>
      </g>
     </g>
    </g>
    <g id="ytick_6">
     <g id="line2d_35">
      <g>
       <use style="stroke:#000000;stroke-width:0.5;" x="65.6634375" xlink:href="#m728421d6d4" y="13.9746875"/>
      </g>
     </g>
     <g id="line2d_36">
      <g>
       <use style="stroke:#000000;stroke-width:0.5;" x="679.4634375" xlink:href="#mcb0005524f" y="13.9746875"/>
      </g>
     </g>
     <g id="text_17">
      <!-- 0.82 -->
      <g transform="translate(32.816875 17.8378125)scale(0.14 -0.14)">
       <use xlink:href="#BitstreamVeraSans-Roman-30"/>
       <use x="63.623046875" xlink:href="#BitstreamVeraSans-Roman-2e"/>
       <use x="95.41015625" xlink:href="#BitstreamVeraSans-Roman-38"/>
       <use x="159.033203125" xlink:href="#BitstreamVeraSans-Roman-32"/>
      </g>
     </g>
    </g>
    <g id="text_18">
     <!-- $\hat{p}(m)$ -->
     <defs>
      <path d="
M13.4844 53.8125
L11.5312 55.9062
L25 69.3906
L38.375 55.9062
L36.375 53.8125
L25 63.8125
z
" id="Cmr10-5e"/>
      <path d="
M31 -24.8125
Q25.4375 -20.4062 21.4062 -14.7188
Q17.3906 -9.03125 14.8125 -2.57812
Q12.25 3.85938 10.9844 10.8906
Q9.71875 17.9219 9.71875 25
Q9.71875 32.1719 10.9844 39.2031
Q12.25 46.2344 14.8594 52.7344
Q17.4844 59.2344 21.5312 64.8906
Q25.5938 70.5625 31 74.8125
Q31 75 31.5 75
L32.4219 75
Q32.7188 75 32.9531 74.7344
Q33.2031 74.4688 33.2031 74.125
Q33.2031 73.6875 33.0156 73.4844
Q28.125 68.7031 24.875 63.2344
Q21.625 57.7656 19.6406 51.5781
Q17.6719 45.4062 16.7969 38.7812
Q15.9219 32.1719 15.9219 25
Q15.9219 -6.78125 32.9062 -23.2969
Q33.2031 -23.5781 33.2031 -24.125
Q33.2031 -24.3594 32.9375 -24.6719
Q32.6719 -25 32.4219 -25
L31.5 -25
Q31 -25 31 -24.8125" id="Cmr10-28"/>
      <path d="
M-2.48438 -19.3906
Q-3.42188 -19.3906 -3.42188 -18.1094
Q-3.07812 -15.9219 -2.09375 -15.9219
Q1.03125 -15.9219 2.26562 -15.3594
Q3.51562 -14.7969 4.20312 -12.5
L15.4844 32.5156
Q16.2188 34.375 16.2188 37.3125
Q16.2188 41.6094 13.2812 41.6094
Q10.1562 41.6094 8.64062 37.8594
Q7.125 34.125 5.71875 28.4219
Q5.71875 27.7812 4.89062 27.7812
L3.71875 27.7812
Q3.46875 27.7812 3.17188 28.1406
Q2.875 28.5156 2.875 28.8125
Q3.95312 33.1562 4.95312 36.1719
Q5.95312 39.2031 8.07812 41.6875
Q10.2031 44.1875 13.375 44.1875
Q16.7969 44.1875 19.375 42.25
Q21.9688 40.3281 22.7031 37.0156
Q25.4375 40.1875 28.75 42.1875
Q32.0781 44.1875 35.5938 44.1875
Q39.7969 44.1875 42.8906 41.9375
Q46 39.7031 47.5625 36.0625
Q49.125 32.4219 49.125 28.2188
Q49.125 21.7812 45.8281 14.8906
Q42.5312 8.01562 36.8906 3.4375
Q31.25 -1.125 24.8125 -1.125
Q21.875 -1.125 19.5 0.53125
Q17.1406 2.20312 15.8281 4.89062
L11.2812 -12.8906
Q11.0312 -14.3594 10.9844 -14.5938
Q10.9844 -15.9219 17.5781 -15.9219
Q18.6094 -15.9219 18.6094 -17.1875
Q18.2656 -18.5 18.0469 -18.9375
Q17.8281 -19.3906 16.8906 -19.3906
z

M24.9062 1.51562
Q28.375 1.51562 31.3438 4.375
Q34.3281 7.23438 36.1875 10.7969
Q37.5469 13.4844 38.7344 17.3594
Q39.9375 21.2344 40.8125 25.625
Q41.7031 30.0312 41.7031 32.625
Q41.7031 34.9062 41.0938 36.9062
Q40.4844 38.9219 39.0938 40.2656
Q37.7031 41.6094 35.4062 41.6094
Q31.7344 41.6094 28.4844 38.9844
Q25.25 36.375 22.6094 32.5156
L22.6094 32.1719
L17.0938 10.1094
Q17.7812 6.54688 19.7344 4.03125
Q21.6875 1.51562 24.9062 1.51562" id="Cmmi10-70"/>
      <path d="
M6.5 -25
Q5.60938 -25 5.60938 -24.125
Q5.60938 -23.6875 5.8125 -23.4844
Q22.9062 -6.78125 22.9062 25
Q22.9062 56.7812 6 73.2969
Q5.60938 73.5312 5.60938 74.125
Q5.60938 74.4688 5.875 74.7344
Q6.15625 75 6.5 75
L7.42188 75
Q7.71875 75 7.90625 74.8125
Q15.0938 69.1406 19.875 61.0312
Q24.6562 52.9375 26.875 43.75
Q29.1094 34.5781 29.1094 25
Q29.1094 17.9219 27.9062 11.0625
Q26.7031 4.20312 24.0938 -2.45312
Q21.4844 -9.125 17.4844 -14.7656
Q13.4844 -20.4062 7.90625 -24.8125
Q7.71875 -25 7.42188 -25
z
" id="Cmr10-29"/>
     </defs>
     <g transform="translate(22.2 230.8746875)rotate(-90.0)scale(0.2 -0.2)">
      <use transform="translate(0.46875 2.875)" xlink:href="#Cmr10-5e"/>
      <use xlink:href="#Cmmi10-70"/>
      <use transform="translate(50.29296875 0.0)" xlink:href="#Cmr10-28"/>
      <use transform="translate(89.111328125 0.0)" xlink:href="#Cmmi10-6d"/>
      <use transform="translate(176.904296875 0.0)" xlink:href="#Cmr10-29"/>
     </g>
    </g>
   </g>
   <g id="patch_3">
    <path d="
M65.6634 13.9747
L679.463 13.9747" style="fill:none;stroke:#000000;"/>
   </g>
   <g id="patch_4">
    <path d="
M679.463 404.575
L679.463 13.9747" style="fill:none;stroke:#000000;"/>
   </g>
   <g id="patch_5">
    <path d="
M65.6634 404.575
L679.463 404.575" style="fill:none;stroke:#000000;"/>
   </g>
   <g id="patch_6">
    <path d="
M65.6634 404.575
L65.6634 13.9747" style="fill:none;stroke:#000000;"/>
   </g>
   <g id="legend_1">
    <g id="patch_7">
     <path d="
M360.323 134.097
L670.463 134.097
L670.463 22.9747
L360.323 22.9747
L360.323 134.097
z
" style="fill:#ffffff;stroke:#000000;"/>
    </g>
    <g id="line2d_37"/>
    <g id="line2d_38">
     <g>
      <use style="stroke:#000000;stroke-width:0.5;" x="372.9234375" xlink:href="#me957a56438" y="37.551875"/>
      <use style="stroke:#000000;stroke-width:0.5;" x="398.1234375" xlink:href="#me957a56438" y="37.551875"/>
     </g>
    </g>
    <g id="text_19">
     <!-- Reference Signal -->
     <defs>
      <path id="BitstreamVeraSans-Roman-20"/>
      <path d="
M54.8906 33.0156
L54.8906 0
L45.9062 0
L45.9062 32.7188
Q45.9062 40.4844 42.875 44.3281
Q39.8438 48.1875 33.7969 48.1875
Q26.5156 48.1875 22.3125 43.5469
Q18.1094 38.9219 18.1094 30.9062
L18.1094 0
L9.07812 0
L9.07812 54.6875
L18.1094 54.6875
L18.1094 46.1875
Q21.3438 51.125 25.7031 53.5625
Q30.0781 56 35.7969 56
Q45.2188 56 50.0469 50.1719
Q54.8906 44.3438 54.8906 33.0156" id="BitstreamVeraSans-Roman-6e"/>
      <path d="
M34.2812 27.4844
Q23.3906 27.4844 19.1875 25
Q14.9844 22.5156 14.9844 16.5
Q14.9844 11.7188 18.1406 8.90625
Q21.2969 6.10938 26.7031 6.10938
Q34.1875 6.10938 38.7031 11.4062
Q43.2188 16.7031 43.2188 25.4844
L43.2188 27.4844
z

M52.2031 31.2031
L52.2031 0
L43.2188 0
L43.2188 8.29688
Q40.1406 3.32812 35.5469 0.953125
Q30.9531 -1.42188 24.3125 -1.42188
Q15.9219 -1.42188 10.9531 3.29688
Q6 8.01562 6 15.9219
Q6 25.1406 12.1719 29.8281
Q18.3594 34.5156 30.6094 34.5156
L43.2188 34.5156
L43.2188 35.4062
Q43.2188 41.6094 39.1406 45
Q35.0625 48.3906 27.6875 48.3906
Q23 48.3906 18.5469 47.2656
Q14.1094 46.1406 10.0156 43.8906
L10.0156 52.2031
Q14.9375 54.1094 19.5781 55.0469
Q24.2188 56 28.6094 56
Q40.4844 56 46.3438 49.8438
Q52.2031 43.7031 52.2031 31.2031" id="BitstreamVeraSans-Roman-61"/>
      <path d="
M9.42188 75.9844
L18.4062 75.9844
L18.4062 0
L9.42188 0
z
" id="BitstreamVeraSans-Roman-6c"/>
      <path d="
M44.3906 34.1875
Q47.5625 33.1094 50.5625 29.5938
Q53.5625 26.0781 56.5938 19.9219
L66.6094 0
L56 0
L46.6875 18.7031
Q43.0625 26.0312 39.6719 28.4219
Q36.2812 30.8125 30.4219 30.8125
L19.6719 30.8125
L19.6719 0
L9.8125 0
L9.8125 72.9062
L32.0781 72.9062
Q44.5781 72.9062 50.7344 67.6719
Q56.8906 62.4531 56.8906 51.9062
Q56.8906 45.0156 53.6875 40.4688
Q50.4844 35.9375 44.3906 34.1875
M19.6719 64.7969
L19.6719 38.9219
L32.0781 38.9219
Q39.2031 38.9219 42.8438 42.2188
Q46.4844 45.5156 46.4844 51.9062
Q46.4844 58.2969 42.8438 61.5469
Q39.2031 64.7969 32.0781 64.7969
z
" id="BitstreamVeraSans-Roman-52"/>
      <path d="
M53.5156 70.5156
L53.5156 60.8906
Q47.9062 63.5781 42.9219 64.8906
Q37.9375 66.2188 33.2969 66.2188
Q25.25 66.2188 20.875 63.0938
Q16.5 59.9688 16.5 54.2031
Q16.5 49.3594 19.4062 46.8906
Q22.3125 44.4375 30.4219 42.9219
L36.375 41.7031
Q47.4062 39.5938 52.6562 34.2969
Q57.9062 29 57.9062 20.125
Q57.9062 9.51562 50.7969 4.04688
Q43.7031 -1.42188 29.9844 -1.42188
Q24.8125 -1.42188 18.9688 -0.25
Q13.1406 0.921875 6.89062 3.21875
L6.89062 13.375
Q12.8906 10.0156 18.6562 8.29688
Q24.4219 6.59375 29.9844 6.59375
Q38.4219 6.59375 43.0156 9.90625
Q47.6094 13.2344 47.6094 19.3906
Q47.6094 24.75 44.3125 27.7812
Q41.0156 30.8125 33.5 32.3281
L27.4844 33.5
Q16.4531 35.6875 11.5156 40.375
Q6.59375 45.0625 6.59375 53.4219
Q6.59375 63.0938 13.4062 68.6562
Q20.2188 74.2188 32.1719 74.2188
Q37.3125 74.2188 42.625 73.2812
Q47.9531 72.3594 53.5156 70.5156" id="BitstreamVeraSans-Roman-53"/>
      <path d="
M9.42188 54.6875
L18.4062 54.6875
L18.4062 0
L9.42188 0
z

M9.42188 75.9844
L18.4062 75.9844
L18.4062 64.5938
L9.42188 64.5938
z
" id="BitstreamVeraSans-Roman-69"/>
      <path d="
M56.2031 29.5938
L56.2031 25.2031
L14.8906 25.2031
Q15.4844 15.9219 20.4844 11.0625
Q25.4844 6.20312 34.4219 6.20312
Q39.5938 6.20312 44.4531 7.46875
Q49.3125 8.73438 54.1094 11.2812
L54.1094 2.78125
Q49.2656 0.734375 44.1875 -0.34375
Q39.1094 -1.42188 33.8906 -1.42188
Q20.7969 -1.42188 13.1562 6.1875
Q5.51562 13.8125 5.51562 26.8125
Q5.51562 40.2344 12.7656 48.1094
Q20.0156 56 32.3281 56
Q43.3594 56 49.7812 48.8906
Q56.2031 41.7969 56.2031 29.5938
M47.2188 32.2344
Q47.125 39.5938 43.0938 43.9844
Q39.0625 48.3906 32.4219 48.3906
Q24.9062 48.3906 20.3906 44.1406
Q15.875 39.8906 15.1875 32.1719
z
" id="BitstreamVeraSans-Roman-65"/>
      <path d="
M45.4062 27.9844
Q45.4062 37.75 41.375 43.1094
Q37.3594 48.4844 30.0781 48.4844
Q22.8594 48.4844 18.8281 43.1094
Q14.7969 37.75 14.7969 27.9844
Q14.7969 18.2656 18.8281 12.8906
Q22.8594 7.51562 30.0781 7.51562
Q37.3594 7.51562 41.375 12.8906
Q45.4062 18.2656 45.4062 27.9844
M54.3906 6.78125
Q54.3906 -7.17188 48.1875 -13.9844
Q42 -20.7969 29.2031 -20.7969
Q24.4688 -20.7969 20.2656 -20.0938
Q16.0625 -19.3906 12.1094 -17.9219
L12.1094 -9.1875
Q16.0625 -11.3281 19.9219 -12.3438
Q23.7812 -13.375 27.7812 -13.375
Q36.625 -13.375 41.0156 -8.76562
Q45.4062 -4.15625 45.4062 5.17188
L45.4062 9.625
Q42.625 4.78125 38.2812 2.39062
Q33.9375 0 27.875 0
Q17.8281 0 11.6719 7.65625
Q5.51562 15.3281 5.51562 27.9844
Q5.51562 40.6719 11.6719 48.3281
Q17.8281 56 27.875 56
Q33.9375 56 38.2812 53.6094
Q42.625 51.2188 45.4062 46.3906
L45.4062 54.6875
L54.3906 54.6875
z
" id="BitstreamVeraSans-Roman-67"/>
      <path d="
M37.1094 75.9844
L37.1094 68.5
L28.5156 68.5
Q23.6875 68.5 21.7969 66.5469
Q19.9219 64.5938 19.9219 59.5156
L19.9219 54.6875
L34.7188 54.6875
L34.7188 47.7031
L19.9219 47.7031
L19.9219 0
L10.8906 0
L10.8906 47.7031
L2.29688 47.7031
L2.29688 54.6875
L10.8906 54.6875
L10.8906 58.5
Q10.8906 67.625 15.1406 71.7969
Q19.3906 75.9844 28.6094 75.9844
z
" id="BitstreamVeraSans-Roman-66"/>
      <path d="
M41.1094 46.2969
Q39.5938 47.1719 37.8125 47.5781
Q36.0312 48 33.8906 48
Q26.2656 48 22.1875 43.0469
Q18.1094 38.0938 18.1094 28.8125
L18.1094 0
L9.07812 0
L9.07812 54.6875
L18.1094 54.6875
L18.1094 46.1875
Q20.9531 51.1719 25.4844 53.5781
Q30.0312 56 36.5312 56
Q37.4531 56 38.5781 55.875
Q39.7031 55.7656 41.0625 55.5156
z
" id="BitstreamVeraSans-Roman-72"/>
      <path d="
M48.7812 52.5938
L48.7812 44.1875
Q44.9688 46.2969 41.1406 47.3438
Q37.3125 48.3906 33.4062 48.3906
Q24.6562 48.3906 19.8125 42.8438
Q14.9844 37.3125 14.9844 27.2969
Q14.9844 17.2812 19.8125 11.7344
Q24.6562 6.20312 33.4062 6.20312
Q37.3125 6.20312 41.1406 7.25
Q44.9688 8.29688 48.7812 10.4062
L48.7812 2.09375
Q45.0156 0.34375 40.9844 -0.53125
Q36.9688 -1.42188 32.4219 -1.42188
Q20.0625 -1.42188 12.7812 6.34375
Q5.51562 14.1094 5.51562 27.2969
Q5.51562 40.6719 12.8594 48.3281
Q20.2188 56 33.0156 56
Q37.1562 56 41.1094 55.1406
Q45.0625 54.2969 48.7812 52.5938" id="BitstreamVeraSans-Roman-63"/>
     </defs>
     <g transform="translate(417.9234375 43.851875)scale(0.18 -0.18)">
      <use xlink:href="#BitstreamVeraSans-Roman-52"/>
      <use x="64.982421875" xlink:href="#BitstreamVeraSans-Roman-65"/>
      <use x="126.505859375" xlink:href="#BitstreamVeraSans-Roman-66"/>
      <use x="161.7109375" xlink:href="#BitstreamVeraSans-Roman-65"/>
      <use x="223.234375" xlink:href="#BitstreamVeraSans-Roman-72"/>
      <use x="262.09765625" xlink:href="#BitstreamVeraSans-Roman-65"/>
      <use x="323.62109375" xlink:href="#BitstreamVeraSans-Roman-6e"/>
      <use x="387.0" xlink:href="#BitstreamVeraSans-Roman-63"/>
      <use x="441.98046875" xlink:href="#BitstreamVeraSans-Roman-65"/>
      <use x="503.50390625" xlink:href="#BitstreamVeraSans-Roman-20"/>
      <use x="535.291015625" xlink:href="#BitstreamVeraSans-Roman-53"/>
      <use x="598.767578125" xlink:href="#BitstreamVeraSans-Roman-69"/>
      <use x="626.55078125" xlink:href="#BitstreamVeraSans-Roman-67"/>
      <use x="690.02734375" xlink:href="#BitstreamVeraSans-Roman-6e"/>
      <use x="753.40625" xlink:href="#BitstreamVeraSans-Roman-61"/>
      <use x="814.685546875" xlink:href="#BitstreamVeraSans-Roman-6c"/>
     </g>
    </g>
    <g id="line2d_39">
     <path d="
M372.923 63.9725
L398.123 63.9725" style="fill:none;stroke:#000000;stroke-dasharray:6.000000,6.000000;stroke-dashoffset:0.0;stroke-width:1.5;"/>
    </g>
    <g id="line2d_40"/>
    <g id="text_20">
     <!-- Reference Model -->
     <defs>
      <path d="
M45.4062 46.3906
L45.4062 75.9844
L54.3906 75.9844
L54.3906 0
L45.4062 0
L45.4062 8.20312
Q42.5781 3.32812 38.25 0.953125
Q33.9375 -1.42188 27.875 -1.42188
Q17.9688 -1.42188 11.7344 6.48438
Q5.51562 14.4062 5.51562 27.2969
Q5.51562 40.1875 11.7344 48.0938
Q17.9688 56 27.875 56
Q33.9375 56 38.25 53.625
Q42.5781 51.2656 45.4062 46.3906
M14.7969 27.2969
Q14.7969 17.3906 18.875 11.75
Q22.9531 6.10938 30.0781 6.10938
Q37.2031 6.10938 41.2969 11.75
Q45.4062 17.3906 45.4062 27.2969
Q45.4062 37.2031 41.2969 42.8438
Q37.2031 48.4844 30.0781 48.4844
Q22.9531 48.4844 18.875 42.8438
Q14.7969 37.2031 14.7969 27.2969" id="BitstreamVeraSans-Roman-64"/>
      <path d="
M9.8125 72.9062
L24.5156 72.9062
L43.1094 23.2969
L61.8125 72.9062
L76.5156 72.9062
L76.5156 0
L66.8906 0
L66.8906 64.0156
L48.0938 14.0156
L38.1875 14.0156
L19.3906 64.0156
L19.3906 0
L9.8125 0
z
" id="BitstreamVeraSans-Roman-4d"/>
      <path d="
M30.6094 48.3906
Q23.3906 48.3906 19.1875 42.75
Q14.9844 37.1094 14.9844 27.2969
Q14.9844 17.4844 19.1562 11.8438
Q23.3438 6.20312 30.6094 6.20312
Q37.7969 6.20312 41.9844 11.8594
Q46.1875 17.5312 46.1875 27.2969
Q46.1875 37.0156 41.9844 42.7031
Q37.7969 48.3906 30.6094 48.3906
M30.6094 56
Q42.3281 56 49.0156 48.375
Q55.7188 40.7656 55.7188 27.2969
Q55.7188 13.875 49.0156 6.21875
Q42.3281 -1.42188 30.6094 -1.42188
Q18.8438 -1.42188 12.1719 6.21875
Q5.51562 13.875 5.51562 27.2969
Q5.51562 40.7656 12.1719 48.375
Q18.8438 56 30.6094 56" id="BitstreamVeraSans-Roman-6f"/>
     </defs>
     <g transform="translate(417.9234375 70.2725)scale(0.18 -0.18)">
      <use xlink:href="#BitstreamVeraSans-Roman-52"/>
      <use x="64.982421875" xlink:href="#BitstreamVeraSans-Roman-65"/>
      <use x="126.505859375" xlink:href="#BitstreamVeraSans-Roman-66"/>
      <use x="161.7109375" xlink:href="#BitstreamVeraSans-Roman-65"/>
      <use x="223.234375" xlink:href="#BitstreamVeraSans-Roman-72"/>
      <use x="262.09765625" xlink:href="#BitstreamVeraSans-Roman-65"/>
      <use x="323.62109375" xlink:href="#BitstreamVeraSans-Roman-6e"/>
      <use x="387.0" xlink:href="#BitstreamVeraSans-Roman-63"/>
      <use x="441.98046875" xlink:href="#BitstreamVeraSans-Roman-65"/>
      <use x="503.50390625" xlink:href="#BitstreamVeraSans-Roman-20"/>
      <use x="535.291015625" xlink:href="#BitstreamVeraSans-Roman-4d"/>
      <use x="621.5703125" xlink:href="#BitstreamVeraSans-Roman-6f"/>
      <use x="682.751953125" xlink:href="#BitstreamVeraSans-Roman-64"/>
      <use x="746.228515625" xlink:href="#BitstreamVeraSans-Roman-65"/>
      <use x="807.751953125" xlink:href="#BitstreamVeraSans-Roman-6c"/>
     </g>
    </g>
    <g id="line2d_41"/>
    <g id="line2d_42">
     <g>
      <use style="stroke:#000000;stroke-width:0.5;" x="372.9234375" xlink:href="#m1c71f79889" y="90.3959375"/>
      <use style="stroke:#000000;stroke-width:0.5;" x="398.1234375" xlink:href="#m1c71f79889" y="90.3959375"/>
     </g>
    </g>
    <g id="text_21">
     <!-- Interleaved Signal for $U = X$ -->
     <defs>
      <path d="
M3.60938 0
Q2.59375 0 2.59375 1.3125
Q2.64062 1.5625 2.8125 2.1875
Q2.98438 2.82812 3.25 3.17188
Q3.51562 3.51562 4 3.51562
Q13.0938 3.51562 19.5781 10.2969
Q19.6719 10.4062 19.7969 10.4531
Q19.9219 10.5 19.9219 10.5
L41.7969 34.0781
L29.8906 62.7969
Q28.8594 64.1094 26.5625 64.4531
Q24.2656 64.7969 21.1875 64.7969
Q20.2188 64.7969 20.2188 66.1094
Q20.5625 67.3906 20.75 67.8438
Q20.9531 68.3125 21.9219 68.3125
L46.9219 68.3125
Q47.9062 68.3125 47.9062 67
Q47.8594 66.75 47.6875 66.1094
Q47.5156 65.4844 47.2344 65.1406
Q46.9688 64.7969 46.4844 64.7969
Q44.625 64.7969 42.6406 64.1875
Q40.6719 63.5781 39.8906 62.2031
L48.4844 41.5
L64.8906 59.0781
Q65.0469 59.4219 65.5781 60.2812
Q66.1094 61.1406 66.1094 61.9219
Q66.1094 63.375 64.8438 64.0781
Q63.5781 64.7969 61.8125 64.7969
Q60.7969 64.7969 60.7969 66.1094
Q61.1406 67.3906 61.3281 67.8438
Q61.5312 68.3125 62.5 68.3125
L84.1875 68.3125
Q84.7188 68.3125 84.9531 67.9219
Q85.2031 67.5312 85.2031 67
Q85.1562 66.75 85 66.1562
Q84.8594 65.5781 84.6094 65.1875
Q84.375 64.7969 83.8906 64.7969
Q79.25 64.7969 75.3594 63.1094
Q71.4844 61.4219 68.2188 58.0156
Q68.1719 57.9531 68.0938 57.9219
Q68.0156 57.9062 67.9219 57.8125
L49.8125 38.2812
L63.4844 5.51562
Q65.0938 3.51562 72.2188 3.51562
Q73.1875 3.51562 73.1875 2.20312
Q72.8594 0.875 72.625 0.4375
Q72.4062 0 71.4844 0
L46.4844 0
Q45.5156 0 45.5156 1.3125
Q45.5625 1.5625 45.7031 2.17188
Q45.8438 2.78125 46.1094 3.14062
Q46.3906 3.51562 46.7812 3.51562
Q48.7344 3.51562 50.7344 4.125
Q52.7344 4.73438 53.5156 6.10938
L43.1094 31
L22.9062 9.1875
Q22.75 8.84375 22.2188 8
Q21.6875 7.17188 21.6875 6.39062
Q21.6875 4.9375 23.0469 4.21875
Q24.4219 3.51562 25.9844 3.51562
Q27 3.51562 27 2.20312
Q26.6562 0.78125 26.4531 0.390625
Q26.2656 0 25.2969 0
z
" id="Cmmi10-58"/>
      <path d="
M14.7031 13.9219
Q14.7031 10.25 16.1406 7.375
Q17.5781 4.5 20.3125 2.90625
Q23.0469 1.3125 26.7031 1.3125
Q31 1.3125 35.0781 3.0625
Q39.1562 4.82812 42.4219 7.95312
Q45.7031 11.0781 48.0156 15.0781
Q50.3438 19.0938 51.3125 23
L60.2969 59.0781
Q60.5 60.1562 60.5 60.5938
Q60.5 64.7969 52.7812 64.7969
Q51.8125 64.7969 51.8125 66.1094
Q52.1562 67.3906 52.3438 67.8438
Q52.5469 68.3125 53.5156 68.3125
L75.2031 68.3125
Q75.6406 68.3125 75.9219 67.875
Q76.2188 67.4375 76.2188 67
Q76.2188 66.9375 76.0156 66.2344
Q75.8281 65.5312 75.5625 65.1562
Q75.2969 64.7969 74.9062 64.7969
Q65.3281 64.7969 63.8125 58.6875
L54.7812 22.6094
Q53.6562 17.9219 51 13.5
Q48.3438 9.07812 44.4531 5.48438
Q40.5781 1.90625 35.9062 -0.140625
Q31.25 -2.20312 26.4219 -2.20312
Q20.9062 -2.20312 16.3281 0.21875
Q11.7656 2.64062 9.17188 6.98438
Q6.59375 11.3281 6.59375 17
Q6.59375 20.2656 7.32812 23
L17 61.8125
Q17.1875 62.7969 17.1875 63.1875
Q17.1875 64.2656 16.0156 64.4062
Q14.1094 64.7969 8.79688 64.7969
Q7.8125 64.7969 7.8125 66.1094
Q8.15625 67.3906 8.34375 67.8438
Q8.54688 68.3125 9.51562 68.3125
L36.375 68.3125
Q37.4062 68.3125 37.4062 67
Q37.3594 66.75 37.2031 66.1562
Q37.0625 65.5781 36.8125 65.1875
Q36.5781 64.7969 36.0781 64.7969
Q29.9844 64.7969 27.5938 64.1094
Q26.2656 63.625 25.6875 61.375
L16.0156 22.6094
Q14.7031 17.3281 14.7031 13.9219" id="Cmmi10-55"/>
      <path d="
M7.51562 13.2812
Q6.6875 13.2812 6.14062 13.9062
Q5.60938 14.5469 5.60938 15.2812
Q5.60938 16.1094 6.14062 16.6875
Q6.6875 17.2812 7.51562 17.2812
L70.3125 17.2812
Q71.0469 17.2812 71.5781 16.6875
Q72.125 16.1094 72.125 15.2812
Q72.125 14.5469 71.5781 13.9062
Q71.0469 13.2812 70.3125 13.2812
z

M7.51562 32.7188
Q6.6875 32.7188 6.14062 33.2969
Q5.60938 33.8906 5.60938 34.7188
Q5.60938 35.4531 6.14062 36.0781
Q6.6875 36.7188 7.51562 36.7188
L70.3125 36.7188
Q71.0469 36.7188 71.5781 36.0781
Q72.125 35.4531 72.125 34.7188
Q72.125 33.8906 71.5781 33.2969
Q71.0469 32.7188 70.3125 32.7188
z
" id="Cmr10-3d"/>
      <path d="
M2.98438 54.6875
L12.5 54.6875
L29.5938 8.79688
L46.6875 54.6875
L56.2031 54.6875
L35.6875 0
L23.4844 0
z
" id="BitstreamVeraSans-Roman-76"/>
      <path d="
M18.3125 70.2188
L18.3125 54.6875
L36.8125 54.6875
L36.8125 47.7031
L18.3125 47.7031
L18.3125 18.0156
Q18.3125 11.3281 20.1406 9.42188
Q21.9688 7.51562 27.5938 7.51562
L36.8125 7.51562
L36.8125 0
L27.5938 0
Q17.1875 0 13.2344 3.875
Q9.28125 7.76562 9.28125 18.0156
L9.28125 47.7031
L2.6875 47.7031
L2.6875 54.6875
L9.28125 54.6875
L9.28125 70.2188
z
" id="BitstreamVeraSans-Roman-74"/>
      <path d="
M9.8125 72.9062
L19.6719 72.9062
L19.6719 0
L9.8125 0
z
" id="BitstreamVeraSans-Roman-49"/>
     </defs>
     <g transform="translate(417.9234375 96.6959375)scale(0.18 -0.18)">
      <use transform="translate(0.0 0.015625)" xlink:href="#BitstreamVeraSans-Roman-49"/>
      <use transform="translate(29.4921875 0.015625)" xlink:href="#BitstreamVeraSans-Roman-6e"/>
      <use transform="translate(92.87109375 0.015625)" xlink:href="#BitstreamVeraSans-Roman-74"/>
      <use transform="translate(132.080078125 0.015625)" xlink:href="#BitstreamVeraSans-Roman-65"/>
      <use transform="translate(193.603515625 0.015625)" xlink:href="#BitstreamVeraSans-Roman-72"/>
      <use transform="translate(234.716796875 0.015625)" xlink:href="#BitstreamVeraSans-Roman-6c"/>
      <use transform="translate(262.5 0.015625)" xlink:href="#BitstreamVeraSans-Roman-65"/>
      <use transform="translate(324.0234375 0.015625)" xlink:href="#BitstreamVeraSans-Roman-61"/>
      <use transform="translate(385.302734375 0.015625)" xlink:href="#BitstreamVeraSans-Roman-76"/>
      <use transform="translate(444.482421875 0.015625)" xlink:href="#BitstreamVeraSans-Roman-65"/>
      <use transform="translate(506.005859375 0.015625)" xlink:href="#BitstreamVeraSans-Roman-64"/>
      <use transform="translate(569.482421875 0.015625)" xlink:href="#BitstreamVeraSans-Roman-20"/>
      <use transform="translate(601.26953125 0.015625)" xlink:href="#BitstreamVeraSans-Roman-53"/>
      <use transform="translate(664.74609375 0.015625)" xlink:href="#BitstreamVeraSans-Roman-69"/>
      <use transform="translate(692.529296875 0.015625)" xlink:href="#BitstreamVeraSans-Roman-67"/>
      <use transform="translate(756.005859375 0.015625)" xlink:href="#BitstreamVeraSans-Roman-6e"/>
      <use transform="translate(819.384765625 0.015625)" xlink:href="#BitstreamVeraSans-Roman-61"/>
      <use transform="translate(880.6640625 0.015625)" xlink:href="#BitstreamVeraSans-Roman-6c"/>
      <use transform="translate(908.447265625 0.015625)" xlink:href="#BitstreamVeraSans-Roman-20"/>
      <use transform="translate(940.234375 0.015625)" xlink:href="#BitstreamVeraSans-Roman-66"/>
      <use transform="translate(975.439453125 0.015625)" xlink:href="#BitstreamVeraSans-Roman-6f"/>
      <use transform="translate(1036.62109375 0.015625)" xlink:href="#BitstreamVeraSans-Roman-72"/>
      <use transform="translate(1077.734375 0.015625)" xlink:href="#BitstreamVeraSans-Roman-20"/>
      <use transform="translate(1109.52148438 0.015625)" xlink:href="#Cmmi10-55"/>
      <use transform="translate(1195.29296875 0.015625)" xlink:href="#Cmr10-3d"/>
      <use transform="translate(1279.3515625 0.015625)" xlink:href="#Cmmi10-58"/>
     </g>
    </g>
    <g id="line2d_43">
     <path d="
M372.923 116.853
L398.123 116.853" style="fill:none;stroke:#000000;stroke-linecap:square;stroke-width:1.5;"/>
    </g>
    <g id="line2d_44"/>
    <g id="text_22">
     <!-- Interleaved Model -->
     <g transform="translate(417.9234375 123.153125)scale(0.18 -0.18)">
      <use xlink:href="#BitstreamVeraSans-Roman-49"/>
      <use x="29.4921875" xlink:href="#BitstreamVeraSans-Roman-6e"/>
      <use x="92.87109375" xlink:href="#BitstreamVeraSans-Roman-74"/>
      <use x="132.080078125" xlink:href="#BitstreamVeraSans-Roman-65"/>
      <use x="193.603515625" xlink:href="#BitstreamVeraSans-Roman-72"/>
      <use x="234.716796875" xlink:href="#BitstreamVeraSans-Roman-6c"/>
      <use x="262.5" xlink:href="#BitstreamVeraSans-Roman-65"/>
      <use x="324.0234375" xlink:href="#BitstreamVeraSans-Roman-61"/>
      <use x="385.302734375" xlink:href="#BitstreamVeraSans-Roman-76"/>
      <use x="444.482421875" xlink:href="#BitstreamVeraSans-Roman-65"/>
      <use x="506.005859375" xlink:href="#BitstreamVeraSans-Roman-64"/>
      <use x="569.482421875" xlink:href="#BitstreamVeraSans-Roman-20"/>
      <use x="601.26953125" xlink:href="#BitstreamVeraSans-Roman-4d"/>
      <use x="687.548828125" xlink:href="#BitstreamVeraSans-Roman-6f"/>
      <use x="748.73046875" xlink:href="#BitstreamVeraSans-Roman-64"/>
      <use x="812.20703125" xlink:href="#BitstreamVeraSans-Roman-65"/>
      <use x="873.73046875" xlink:href="#BitstreamVeraSans-Roman-6c"/>
     </g>
    </g>
   </g>
  </g>
 </g>
 <defs>
  <clipPath id="peb1b15205a">
   <rect height="390.6" width="613.8" x="65.6634375" y="13.9746875"/>
  </clipPath>
 </defs>
</svg>
