<?xml version="1.0" encoding="utf-8" standalone="no"?>
<!DOCTYPE svg PUBLIC "-//W3C//DTD SVG 1.1//EN"
  "http://www.w3.org/Graphics/SVG/1.1/DTD/svg11.dtd">
<!-- Created with matplotlib (http://matplotlib.org/) -->
<svg height="288pt" version="1.1" viewBox="0 0 423 288" width="423pt" xmlns="http://www.w3.org/2000/svg" xmlns:xlink="http://www.w3.org/1999/xlink">
 <defs>
  <style type="text/css">
*{stroke-linecap:butt;stroke-linejoin:round;}
  </style>
 </defs>
 <g id="figure_1">
  <g id="patch_1">
   <path d="
M0 288.356
L423.55 288.356
L423.55 0
L0 0
z
" style="fill:#ffffff;"/>
  </g>
  <g id="axes_1">
   <g id="patch_2">
    <path d="
M66.22 237.82
L401.02 237.82
L401.02 14.62
L66.22 14.62
z
" style="fill:#ffffff;"/>
   </g>
   <g id="line2d_1">
    <path clip-path="url(#p0ddfe5d0b5)" d="
M401.02 20.1247
L398.061 22.0977
L395.102 24.0696
L392.143 26.0409
L389.184 28.0137
L386.225 29.9871
L383.265 31.9615
L380.306 33.9331
L377.347 35.9037
L374.388 37.8775
L371.429 39.8542
L368.47 41.8271
L365.511 43.7966
L362.552 45.7646
L359.593 47.7446
L356.634 49.7144
L353.675 51.6903
L350.715 53.6589
L347.756 55.63
L344.797 57.6038
L341.838 59.5816
L338.879 61.5497
L335.92 63.5273
L332.961 65.502
L330.002 67.4582
L327.043 69.4462
L324.084 71.4093
L321.125 73.3806
L318.165 75.3477
L315.206 77.327
L312.247 79.3071
L309.288 81.2731
L306.329 83.2476
L303.37 85.2182
L300.411 87.1691
L297.452 89.1855
L294.493 91.1559
L291.534 93.1146
L288.575 95.1111
L285.615 97.0676
L282.656 99.0377
L279.697 101.01
L276.738 102.971
L273.779 104.903
L270.82 106.894
L267.861 108.943
L264.902 110.793
L261.943 112.797
L258.984 114.83
L256.025 116.719
L253.065 118.769
L250.106 120.619
L247.147 122.623
L244.188 124.58
L241.229 126.71
L238.27 128.505
L235.311 130.445
L232.352 132.554
L229.393 134.52
L226.434 136.659
L223.475 138.599
L220.515 140.271
L217.556 142.538
L214.597 144.517
L211.638 146.115
L208.679 148.425
L205.72 150.314
L202.761 152.363
L199.802 153.833
L196.843 156.218
L193.884 157.95
L190.925 159.815
L187.965 161.836
L185.006 164.04
L182.047 166.466
L179.088 167.776
L176.129 170.63
L173.17 172.194
L170.211 173.866
L167.252 175.662
L164.293 177.602
L161.334 179.71
L158.375 182.02
L155.415 184.573
L152.456 184.573
L149.497 187.428
L146.538 190.664
L143.579 190.664
L140.62 194.399
L137.661 194.399
L134.702 198.817
L131.743 198.817
L128.784 198.817
L125.825 204.225
L122.865 204.225
L119.906 204.225
L116.947 211.197
L113.988 211.197
L111.029 211.197
L108.07 211.197" style="fill:none;stroke:#000000;stroke-linecap:square;stroke-width:1.5;"/>
   </g>
   <g id="matplotlib.axis_1">
    <g id="xtick_1">
     <g id="line2d_2">
      <defs>
       <path d="
M0 0
L0 -4" id="m93b0483c22" style="stroke:#000000;stroke-width:0.5;"/>
      </defs>
      <g>
       <use style="stroke:#000000;stroke-width:0.5;" x="401.02" xlink:href="#m93b0483c22" y="237.82"/>
      </g>
     </g>
     <g id="line2d_3">
      <defs>
       <path d="
M0 0
L0 4" id="m741efc42ff" style="stroke:#000000;stroke-width:0.5;"/>
      </defs>
      <g>
       <use style="stroke:#000000;stroke-width:0.5;" x="401.02" xlink:href="#m741efc42ff" y="14.62"/>
      </g>
     </g>
     <g id="text_1">
      <!-- $\mathdefault{10^{-4}}$ -->
      <defs>
       <path d="
M31.7812 66.4062
Q24.1719 66.4062 20.3281 58.9062
Q16.5 51.4219 16.5 36.375
Q16.5 21.3906 20.3281 13.8906
Q24.1719 6.39062 31.7812 6.39062
Q39.4531 6.39062 43.2812 13.8906
Q47.125 21.3906 47.125 36.375
Q47.125 51.4219 43.2812 58.9062
Q39.4531 66.4062 31.7812 66.4062
M31.7812 74.2188
Q44.0469 74.2188 50.5156 64.5156
Q56.9844 54.8281 56.9844 36.375
Q56.9844 17.9688 50.5156 8.26562
Q44.0469 -1.42188 31.7812 -1.42188
Q19.5312 -1.42188 13.0625 8.26562
Q6.59375 17.9688 6.59375 36.375
Q6.59375 54.8281 13.0625 64.5156
Q19.5312 74.2188 31.7812 74.2188" id="BitstreamVeraSans-Roman-30"/>
       <path d="
M12.4062 8.29688
L28.5156 8.29688
L28.5156 63.9219
L10.9844 60.4062
L10.9844 69.3906
L28.4219 72.9062
L38.2812 72.9062
L38.2812 8.29688
L54.3906 8.29688
L54.3906 0
L12.4062 0
z
" id="BitstreamVeraSans-Roman-31"/>
       <path d="
M4.89062 31.3906
L31.2031 31.3906
L31.2031 23.3906
L4.89062 23.3906
z
" id="BitstreamVeraSans-Roman-2d"/>
       <path d="
M37.7969 64.3125
L12.8906 25.3906
L37.7969 25.3906
z

M35.2031 72.9062
L47.6094 72.9062
L47.6094 25.3906
L58.0156 25.3906
L58.0156 17.1875
L47.6094 17.1875
L47.6094 0
L37.7969 0
L37.7969 17.1875
L4.89062 17.1875
L4.89062 26.7031
z
" id="BitstreamVeraSans-Roman-34"/>
      </defs>
      <g transform="translate(385.69 253.7484375)scale(0.14 -0.14)">
       <use transform="translate(0.0 0.465625)" xlink:href="#BitstreamVeraSans-Roman-31"/>
       <use transform="translate(63.623046875 0.465625)" xlink:href="#BitstreamVeraSans-Roman-30"/>
       <use transform="translate(127.24609375 52.965625)scale(0.7)" xlink:href="#BitstreamVeraSans-Roman-2d"/>
       <use transform="translate(152.504882812 52.965625)scale(0.7)" xlink:href="#BitstreamVeraSans-Roman-34"/>
      </g>
     </g>
    </g>
    <g id="xtick_2">
     <g id="line2d_4">
      <g>
       <use style="stroke:#000000;stroke-width:0.5;" x="317.32" xlink:href="#m93b0483c22" y="237.82"/>
      </g>
     </g>
     <g id="line2d_5">
      <g>
       <use style="stroke:#000000;stroke-width:0.5;" x="317.32" xlink:href="#m741efc42ff" y="14.62"/>
      </g>
     </g>
     <g id="text_2">
      <!-- $\mathdefault{10^{-3}}$ -->
      <defs>
       <path d="
M40.5781 39.3125
Q47.6562 37.7969 51.625 33
Q55.6094 28.2188 55.6094 21.1875
Q55.6094 10.4062 48.1875 4.48438
Q40.7656 -1.42188 27.0938 -1.42188
Q22.5156 -1.42188 17.6562 -0.515625
Q12.7969 0.390625 7.625 2.20312
L7.625 11.7188
Q11.7188 9.32812 16.5938 8.10938
Q21.4844 6.89062 26.8125 6.89062
Q36.0781 6.89062 40.9375 10.5469
Q45.7969 14.2031 45.7969 21.1875
Q45.7969 27.6406 41.2812 31.2656
Q36.7656 34.9062 28.7188 34.9062
L20.2188 34.9062
L20.2188 43.0156
L29.1094 43.0156
Q36.375 43.0156 40.2344 45.9219
Q44.0938 48.8281 44.0938 54.2969
Q44.0938 59.9062 40.1094 62.9062
Q36.1406 65.9219 28.7188 65.9219
Q24.6562 65.9219 20.0156 65.0312
Q15.375 64.1562 9.8125 62.3125
L9.8125 71.0938
Q15.4375 72.6562 20.3438 73.4375
Q25.25 74.2188 29.5938 74.2188
Q40.8281 74.2188 47.3594 69.1094
Q53.9062 64.0156 53.9062 55.3281
Q53.9062 49.2656 50.4375 45.0938
Q46.9688 40.9219 40.5781 39.3125" id="BitstreamVeraSans-Roman-33"/>
      </defs>
      <g transform="translate(301.99 253.8884375)scale(0.14 -0.14)">
       <use transform="translate(0.0 0.546875)" xlink:href="#BitstreamVeraSans-Roman-31"/>
       <use transform="translate(63.623046875 0.546875)" xlink:href="#BitstreamVeraSans-Roman-30"/>
       <use transform="translate(127.24609375 53.046875)scale(0.7)" xlink:href="#BitstreamVeraSans-Roman-2d"/>
       <use transform="translate(152.504882812 53.046875)scale(0.7)" xlink:href="#BitstreamVeraSans-Roman-33"/>
      </g>
     </g>
    </g>
    <g id="xtick_3">
     <g id="line2d_6">
      <g>
       <use style="stroke:#000000;stroke-width:0.5;" x="233.62" xlink:href="#m93b0483c22" y="237.82"/>
      </g>
     </g>
     <g id="line2d_7">
      <g>
       <use style="stroke:#000000;stroke-width:0.5;" x="233.62" xlink:href="#m741efc42ff" y="14.62"/>
      </g>
     </g>
     <g id="text_3">
      <!-- $\mathdefault{10^{-2}}$ -->
      <defs>
       <path d="
M19.1875 8.29688
L53.6094 8.29688
L53.6094 0
L7.32812 0
L7.32812 8.29688
Q12.9375 14.1094 22.625 23.8906
Q32.3281 33.6875 34.8125 36.5312
Q39.5469 41.8438 41.4219 45.5312
Q43.3125 49.2188 43.3125 52.7812
Q43.3125 58.5938 39.2344 62.25
Q35.1562 65.9219 28.6094 65.9219
Q23.9688 65.9219 18.8125 64.3125
Q13.6719 62.7031 7.8125 59.4219
L7.8125 69.3906
Q13.7656 71.7812 18.9375 73
Q24.125 74.2188 28.4219 74.2188
Q39.75 74.2188 46.4844 68.5469
Q53.2188 62.8906 53.2188 53.4219
Q53.2188 48.9219 51.5312 44.8906
Q49.8594 40.875 45.4062 35.4062
Q44.1875 33.9844 37.6406 27.2188
Q31.1094 20.4531 19.1875 8.29688" id="BitstreamVeraSans-Roman-32"/>
      </defs>
      <g transform="translate(218.29 253.8884375)scale(0.14 -0.14)">
       <use transform="translate(0.0 0.546875)" xlink:href="#BitstreamVeraSans-Roman-31"/>
       <use transform="translate(63.623046875 0.546875)" xlink:href="#BitstreamVeraSans-Roman-30"/>
       <use transform="translate(127.24609375 53.046875)scale(0.7)" xlink:href="#BitstreamVeraSans-Roman-2d"/>
       <use transform="translate(152.504882812 53.046875)scale(0.7)" xlink:href="#BitstreamVeraSans-Roman-32"/>
      </g>
     </g>
    </g>
    <g id="xtick_4">
     <g id="line2d_8">
      <g>
       <use style="stroke:#000000;stroke-width:0.5;" x="149.92" xlink:href="#m93b0483c22" y="237.82"/>
      </g>
     </g>
     <g id="line2d_9">
      <g>
       <use style="stroke:#000000;stroke-width:0.5;" x="149.92" xlink:href="#m741efc42ff" y="14.62"/>
      </g>
     </g>
     <g id="text_4">
      <!-- $\mathdefault{10^{-1}}$ -->
      <g transform="translate(134.59 253.7484375)scale(0.14 -0.14)">
       <use transform="translate(0.0 0.465625)" xlink:href="#BitstreamVeraSans-Roman-31"/>
       <use transform="translate(63.623046875 0.465625)" xlink:href="#BitstreamVeraSans-Roman-30"/>
       <use transform="translate(127.24609375 52.965625)scale(0.7)" xlink:href="#BitstreamVeraSans-Roman-2d"/>
       <use transform="translate(152.504882812 52.965625)scale(0.7)" xlink:href="#BitstreamVeraSans-Roman-31"/>
      </g>
     </g>
    </g>
    <g id="xtick_5">
     <g id="line2d_10">
      <g>
       <use style="stroke:#000000;stroke-width:0.5;" x="66.22" xlink:href="#m93b0483c22" y="237.82"/>
      </g>
     </g>
     <g id="line2d_11">
      <g>
       <use style="stroke:#000000;stroke-width:0.5;" x="66.22" xlink:href="#m741efc42ff" y="14.62"/>
      </g>
     </g>
     <g id="text_5">
      <!-- $\mathdefault{10^{0}}$ -->
      <g transform="translate(52.71 253.8884375)scale(0.14 -0.14)">
       <use transform="translate(0.0 0.546875)" xlink:href="#BitstreamVeraSans-Roman-31"/>
       <use transform="translate(63.623046875 0.546875)" xlink:href="#BitstreamVeraSans-Roman-30"/>
       <use transform="translate(127.24609375 53.046875)scale(0.7)" xlink:href="#BitstreamVeraSans-Roman-30"/>
      </g>
     </g>
    </g>
    <g id="xtick_6">
     <g id="line2d_12">
      <defs>
       <path d="
M0 0
L0 -2" id="m177f7580d0" style="stroke:#000000;stroke-width:0.5;"/>
      </defs>
      <g>
       <use style="stroke:#000000;stroke-width:0.5;" x="375.823789363" xlink:href="#m177f7580d0" y="237.82"/>
      </g>
     </g>
     <g id="line2d_13">
      <defs>
       <path d="
M0 0
L0 2" id="m5284c7e2a0" style="stroke:#000000;stroke-width:0.5;"/>
      </defs>
      <g>
       <use style="stroke:#000000;stroke-width:0.5;" x="375.823789363" xlink:href="#m5284c7e2a0" y="14.62"/>
      </g>
     </g>
    </g>
    <g id="xtick_7">
     <g id="line2d_14">
      <g>
       <use style="stroke:#000000;stroke-width:0.5;" x="361.08495098" xlink:href="#m177f7580d0" y="237.82"/>
      </g>
     </g>
     <g id="line2d_15">
      <g>
       <use style="stroke:#000000;stroke-width:0.5;" x="361.08495098" xlink:href="#m5284c7e2a0" y="14.62"/>
      </g>
     </g>
    </g>
    <g id="xtick_8">
     <g id="line2d_16">
      <g>
       <use style="stroke:#000000;stroke-width:0.5;" x="350.627578726" xlink:href="#m177f7580d0" y="237.82"/>
      </g>
     </g>
     <g id="line2d_17">
      <g>
       <use style="stroke:#000000;stroke-width:0.5;" x="350.627578726" xlink:href="#m5284c7e2a0" y="14.62"/>
      </g>
     </g>
    </g>
    <g id="xtick_9">
     <g id="line2d_18">
      <g>
       <use style="stroke:#000000;stroke-width:0.5;" x="342.516210637" xlink:href="#m177f7580d0" y="237.82"/>
      </g>
     </g>
     <g id="line2d_19">
      <g>
       <use style="stroke:#000000;stroke-width:0.5;" x="342.516210637" xlink:href="#m5284c7e2a0" y="14.62"/>
      </g>
     </g>
    </g>
    <g id="xtick_10">
     <g id="line2d_20">
      <g>
       <use style="stroke:#000000;stroke-width:0.5;" x="335.888740343" xlink:href="#m177f7580d0" y="237.82"/>
      </g>
     </g>
     <g id="line2d_21">
      <g>
       <use style="stroke:#000000;stroke-width:0.5;" x="335.888740343" xlink:href="#m5284c7e2a0" y="14.62"/>
      </g>
     </g>
    </g>
    <g id="xtick_11">
     <g id="line2d_22">
      <g>
       <use style="stroke:#000000;stroke-width:0.5;" x="330.285294051" xlink:href="#m177f7580d0" y="237.82"/>
      </g>
     </g>
     <g id="line2d_23">
      <g>
       <use style="stroke:#000000;stroke-width:0.5;" x="330.285294051" xlink:href="#m5284c7e2a0" y="14.62"/>
      </g>
     </g>
    </g>
    <g id="xtick_12">
     <g id="line2d_24">
      <g>
       <use style="stroke:#000000;stroke-width:0.5;" x="325.431368089" xlink:href="#m177f7580d0" y="237.82"/>
      </g>
     </g>
     <g id="line2d_25">
      <g>
       <use style="stroke:#000000;stroke-width:0.5;" x="325.431368089" xlink:href="#m5284c7e2a0" y="14.62"/>
      </g>
     </g>
    </g>
    <g id="xtick_13">
     <g id="line2d_26">
      <g>
       <use style="stroke:#000000;stroke-width:0.5;" x="321.14990196" xlink:href="#m177f7580d0" y="237.82"/>
      </g>
     </g>
     <g id="line2d_27">
      <g>
       <use style="stroke:#000000;stroke-width:0.5;" x="321.14990196" xlink:href="#m5284c7e2a0" y="14.62"/>
      </g>
     </g>
    </g>
    <g id="xtick_14">
     <g id="line2d_28">
      <g>
       <use style="stroke:#000000;stroke-width:0.5;" x="292.123789363" xlink:href="#m177f7580d0" y="237.82"/>
      </g>
     </g>
     <g id="line2d_29">
      <g>
       <use style="stroke:#000000;stroke-width:0.5;" x="292.123789363" xlink:href="#m5284c7e2a0" y="14.62"/>
      </g>
     </g>
    </g>
    <g id="xtick_15">
     <g id="line2d_30">
      <g>
       <use style="stroke:#000000;stroke-width:0.5;" x="277.38495098" xlink:href="#m177f7580d0" y="237.82"/>
      </g>
     </g>
     <g id="line2d_31">
      <g>
       <use style="stroke:#000000;stroke-width:0.5;" x="277.38495098" xlink:href="#m5284c7e2a0" y="14.62"/>
      </g>
     </g>
    </g>
    <g id="xtick_16">
     <g id="line2d_32">
      <g>
       <use style="stroke:#000000;stroke-width:0.5;" x="266.927578726" xlink:href="#m177f7580d0" y="237.82"/>
      </g>
     </g>
     <g id="line2d_33">
      <g>
       <use style="stroke:#000000;stroke-width:0.5;" x="266.927578726" xlink:href="#m5284c7e2a0" y="14.62"/>
      </g>
     </g>
    </g>
    <g id="xtick_17">
     <g id="line2d_34">
      <g>
       <use style="stroke:#000000;stroke-width:0.5;" x="258.816210637" xlink:href="#m177f7580d0" y="237.82"/>
      </g>
     </g>
     <g id="line2d_35">
      <g>
       <use style="stroke:#000000;stroke-width:0.5;" x="258.816210637" xlink:href="#m5284c7e2a0" y="14.62"/>
      </g>
     </g>
    </g>
    <g id="xtick_18">
     <g id="line2d_36">
      <g>
       <use style="stroke:#000000;stroke-width:0.5;" x="252.188740343" xlink:href="#m177f7580d0" y="237.82"/>
      </g>
     </g>
     <g id="line2d_37">
      <g>
       <use style="stroke:#000000;stroke-width:0.5;" x="252.188740343" xlink:href="#m5284c7e2a0" y="14.62"/>
      </g>
     </g>
    </g>
    <g id="xtick_19">
     <g id="line2d_38">
      <g>
       <use style="stroke:#000000;stroke-width:0.5;" x="246.585294051" xlink:href="#m177f7580d0" y="237.82"/>
      </g>
     </g>
     <g id="line2d_39">
      <g>
       <use style="stroke:#000000;stroke-width:0.5;" x="246.585294051" xlink:href="#m5284c7e2a0" y="14.62"/>
      </g>
     </g>
    </g>
    <g id="xtick_20">
     <g id="line2d_40">
      <g>
       <use style="stroke:#000000;stroke-width:0.5;" x="241.731368089" xlink:href="#m177f7580d0" y="237.82"/>
      </g>
     </g>
     <g id="line2d_41">
      <g>
       <use style="stroke:#000000;stroke-width:0.5;" x="241.731368089" xlink:href="#m5284c7e2a0" y="14.62"/>
      </g>
     </g>
    </g>
    <g id="xtick_21">
     <g id="line2d_42">
      <g>
       <use style="stroke:#000000;stroke-width:0.5;" x="237.44990196" xlink:href="#m177f7580d0" y="237.82"/>
      </g>
     </g>
     <g id="line2d_43">
      <g>
       <use style="stroke:#000000;stroke-width:0.5;" x="237.44990196" xlink:href="#m5284c7e2a0" y="14.62"/>
      </g>
     </g>
    </g>
    <g id="xtick_22">
     <g id="line2d_44">
      <g>
       <use style="stroke:#000000;stroke-width:0.5;" x="208.423789363" xlink:href="#m177f7580d0" y="237.82"/>
      </g>
     </g>
     <g id="line2d_45">
      <g>
       <use style="stroke:#000000;stroke-width:0.5;" x="208.423789363" xlink:href="#m5284c7e2a0" y="14.62"/>
      </g>
     </g>
    </g>
    <g id="xtick_23">
     <g id="line2d_46">
      <g>
       <use style="stroke:#000000;stroke-width:0.5;" x="193.68495098" xlink:href="#m177f7580d0" y="237.82"/>
      </g>
     </g>
     <g id="line2d_47">
      <g>
       <use style="stroke:#000000;stroke-width:0.5;" x="193.68495098" xlink:href="#m5284c7e2a0" y="14.62"/>
      </g>
     </g>
    </g>
    <g id="xtick_24">
     <g id="line2d_48">
      <g>
       <use style="stroke:#000000;stroke-width:0.5;" x="183.227578726" xlink:href="#m177f7580d0" y="237.82"/>
      </g>
     </g>
     <g id="line2d_49">
      <g>
       <use style="stroke:#000000;stroke-width:0.5;" x="183.227578726" xlink:href="#m5284c7e2a0" y="14.62"/>
      </g>
     </g>
    </g>
    <g id="xtick_25">
     <g id="line2d_50">
      <g>
       <use style="stroke:#000000;stroke-width:0.5;" x="175.116210637" xlink:href="#m177f7580d0" y="237.82"/>
      </g>
     </g>
     <g id="line2d_51">
      <g>
       <use style="stroke:#000000;stroke-width:0.5;" x="175.116210637" xlink:href="#m5284c7e2a0" y="14.62"/>
      </g>
     </g>
    </g>
    <g id="xtick_26">
     <g id="line2d_52">
      <g>
       <use style="stroke:#000000;stroke-width:0.5;" x="168.488740343" xlink:href="#m177f7580d0" y="237.82"/>
      </g>
     </g>
     <g id="line2d_53">
      <g>
       <use style="stroke:#000000;stroke-width:0.5;" x="168.488740343" xlink:href="#m5284c7e2a0" y="14.62"/>
      </g>
     </g>
    </g>
    <g id="xtick_27">
     <g id="line2d_54">
      <g>
       <use style="stroke:#000000;stroke-width:0.5;" x="162.885294051" xlink:href="#m177f7580d0" y="237.82"/>
      </g>
     </g>
     <g id="line2d_55">
      <g>
       <use style="stroke:#000000;stroke-width:0.5;" x="162.885294051" xlink:href="#m5284c7e2a0" y="14.62"/>
      </g>
     </g>
    </g>
    <g id="xtick_28">
     <g id="line2d_56">
      <g>
       <use style="stroke:#000000;stroke-width:0.5;" x="158.031368089" xlink:href="#m177f7580d0" y="237.82"/>
      </g>
     </g>
     <g id="line2d_57">
      <g>
       <use style="stroke:#000000;stroke-width:0.5;" x="158.031368089" xlink:href="#m5284c7e2a0" y="14.62"/>
      </g>
     </g>
    </g>
    <g id="xtick_29">
     <g id="line2d_58">
      <g>
       <use style="stroke:#000000;stroke-width:0.5;" x="153.74990196" xlink:href="#m177f7580d0" y="237.82"/>
      </g>
     </g>
     <g id="line2d_59">
      <g>
       <use style="stroke:#000000;stroke-width:0.5;" x="153.74990196" xlink:href="#m5284c7e2a0" y="14.62"/>
      </g>
     </g>
    </g>
    <g id="xtick_30">
     <g id="line2d_60">
      <g>
       <use style="stroke:#000000;stroke-width:0.5;" x="124.723789363" xlink:href="#m177f7580d0" y="237.82"/>
      </g>
     </g>
     <g id="line2d_61">
      <g>
       <use style="stroke:#000000;stroke-width:0.5;" x="124.723789363" xlink:href="#m5284c7e2a0" y="14.62"/>
      </g>
     </g>
    </g>
    <g id="xtick_31">
     <g id="line2d_62">
      <g>
       <use style="stroke:#000000;stroke-width:0.5;" x="109.98495098" xlink:href="#m177f7580d0" y="237.82"/>
      </g>
     </g>
     <g id="line2d_63">
      <g>
       <use style="stroke:#000000;stroke-width:0.5;" x="109.98495098" xlink:href="#m5284c7e2a0" y="14.62"/>
      </g>
     </g>
    </g>
    <g id="xtick_32">
     <g id="line2d_64">
      <g>
       <use style="stroke:#000000;stroke-width:0.5;" x="99.5275787258" xlink:href="#m177f7580d0" y="237.82"/>
      </g>
     </g>
     <g id="line2d_65">
      <g>
       <use style="stroke:#000000;stroke-width:0.5;" x="99.5275787258" xlink:href="#m5284c7e2a0" y="14.62"/>
      </g>
     </g>
    </g>
    <g id="xtick_33">
     <g id="line2d_66">
      <g>
       <use style="stroke:#000000;stroke-width:0.5;" x="91.4162106371" xlink:href="#m177f7580d0" y="237.82"/>
      </g>
     </g>
     <g id="line2d_67">
      <g>
       <use style="stroke:#000000;stroke-width:0.5;" x="91.4162106371" xlink:href="#m5284c7e2a0" y="14.62"/>
      </g>
     </g>
    </g>
    <g id="xtick_34">
     <g id="line2d_68">
      <g>
       <use style="stroke:#000000;stroke-width:0.5;" x="84.7887403429" xlink:href="#m177f7580d0" y="237.82"/>
      </g>
     </g>
     <g id="line2d_69">
      <g>
       <use style="stroke:#000000;stroke-width:0.5;" x="84.7887403429" xlink:href="#m5284c7e2a0" y="14.62"/>
      </g>
     </g>
    </g>
    <g id="xtick_35">
     <g id="line2d_70">
      <g>
       <use style="stroke:#000000;stroke-width:0.5;" x="79.1852940508" xlink:href="#m177f7580d0" y="237.82"/>
      </g>
     </g>
     <g id="line2d_71">
      <g>
       <use style="stroke:#000000;stroke-width:0.5;" x="79.1852940508" xlink:href="#m5284c7e2a0" y="14.62"/>
      </g>
     </g>
    </g>
    <g id="xtick_36">
     <g id="line2d_72">
      <g>
       <use style="stroke:#000000;stroke-width:0.5;" x="74.3313680888" xlink:href="#m177f7580d0" y="237.82"/>
      </g>
     </g>
     <g id="line2d_73">
      <g>
       <use style="stroke:#000000;stroke-width:0.5;" x="74.3313680888" xlink:href="#m5284c7e2a0" y="14.62"/>
      </g>
     </g>
    </g>
    <g id="xtick_37">
     <g id="line2d_74">
      <g>
       <use style="stroke:#000000;stroke-width:0.5;" x="70.0499019599" xlink:href="#m177f7580d0" y="237.82"/>
      </g>
     </g>
     <g id="line2d_75">
      <g>
       <use style="stroke:#000000;stroke-width:0.5;" x="70.0499019599" xlink:href="#m5284c7e2a0" y="14.62"/>
      </g>
     </g>
    </g>
    <g id="text_6">
     <!-- $1 - F$ -->
     <defs>
      <path d="
M4.6875 0
Q3.71875 0 3.71875 1.3125
Q3.76562 1.5625 3.90625 2.17188
Q4.04688 2.78125 4.3125 3.14062
Q4.59375 3.51562 4.98438 3.51562
Q11.0781 3.51562 13.4844 4.20312
Q14.7969 4.64062 15.375 6.89062
L29.1094 61.8125
Q29.2969 62.7969 29.2969 63.1875
Q29.2969 64.2656 28.0781 64.4062
Q26.2188 64.7969 20.9062 64.7969
Q19.9219 64.7969 19.9219 66.1094
Q19.9688 66.3594 20.1094 66.9688
Q20.2656 67.5781 20.5312 67.9375
Q20.7969 68.3125 21.1875 68.3125
L74.0312 68.3125
Q75 68.3125 75 67
L72.6094 46.2969
Q72.6094 46 72.2656 45.7031
Q71.9219 45.4062 71.5781 45.4062
L70.7031 45.4062
Q69.6719 45.4062 69.6719 46.6875
Q70.3125 51.2188 70.3125 54.1094
Q70.3125 59.0781 68.1562 61.4219
Q66.0156 63.7656 62.7344 64.2812
Q59.4688 64.7969 53.7188 64.7969
L43.0156 64.7969
Q40.2812 64.7969 39.4062 64.3281
Q38.5312 63.875 37.7969 61.375
L31.3906 35.8906
L38.9219 35.8906
Q42.625 35.8906 44.9219 36.2812
Q47.2188 36.6719 48.7344 37.7969
Q50.25 38.9219 51.25 41.0469
Q52.25 43.1719 53.0781 46.6875
Q53.375 47.6094 54.1094 47.6094
L54.9844 47.6094
Q56 47.6094 56 46.2969
L49.9062 21.5781
Q49.4688 20.7031 48.875 20.7031
L48 20.7031
Q47.0156 20.7031 47.0156 22.0156
Q47.2656 23.0469 47.4062 23.7344
Q47.5625 24.4219 47.7812 25.7031
Q48 27 48 27.9844
Q48 30.8594 45.4531 31.6406
Q42.9219 32.4219 38.8125 32.4219
L30.6094 32.4219
L24.125 6.5
Q23.875 5.51562 23.875 5.51562
Q23.875 4.34375 24.6094 4.20312
Q27.2031 3.51562 34.8125 3.51562
Q35.7969 3.51562 35.7969 2.20312
Q35.4531 0.78125 35.25 0.390625
Q35.0625 0 34.0781 0
z
" id="Cmmi10-46"/>
      <path d="
M9.28125 0
L9.28125 3.51562
Q21.7812 3.51562 21.7812 6.6875
L21.7812 59.1875
Q16.6094 56.6875 8.6875 56.6875
L8.6875 60.2031
Q20.9531 60.2031 27.2031 66.6094
L28.6094 66.6094
Q28.9531 66.6094 29.2656 66.3281
Q29.5938 66.0625 29.5938 65.7188
L29.5938 6.6875
Q29.5938 3.51562 42.0938 3.51562
L42.0938 0
z
" id="Cmr10-31"/>
      <path d="
M10.2031 23
Q9.375 23 8.82812 23.625
Q8.29688 24.2656 8.29688 25
Q8.29688 25.7344 8.82812 26.3594
Q9.375 27 10.2031 27
L67.5781 27
Q68.3594 27 68.875 26.3594
Q69.3906 25.7344 69.3906 25
Q69.3906 24.2656 68.875 23.625
Q68.3594 23 67.5781 23
z
" id="Cmsy10-a1"/>
     </defs>
     <g transform="translate(214.42 276.996875)scale(0.2 -0.2)">
      <use transform="translate(0.0 0.6875)" xlink:href="#Cmr10-31"/>
      <use transform="translate(50.0 0.6875)" xlink:href="#Cmsy10-a1"/>
      <use transform="translate(127.685546875 0.6875)" xlink:href="#Cmmi10-46"/>
     </g>
    </g>
   </g>
   <g id="matplotlib.axis_2">
    <g id="ytick_1">
     <g id="line2d_76">
      <defs>
       <path d="
M0 0
L4 0" id="m728421d6d4" style="stroke:#000000;stroke-width:0.5;"/>
      </defs>
      <g>
       <use style="stroke:#000000;stroke-width:0.5;" x="66.22" xlink:href="#m728421d6d4" y="237.82"/>
      </g>
     </g>
     <g id="line2d_77">
      <defs>
       <path d="
M0 0
L-4 0" id="mcb0005524f" style="stroke:#000000;stroke-width:0.5;"/>
      </defs>
      <g>
       <use style="stroke:#000000;stroke-width:0.5;" x="401.02" xlink:href="#mcb0005524f" y="237.82"/>
      </g>
     </g>
     <g id="text_7">
      <!-- $\mathdefault{10^{0}}$ -->
      <g transform="translate(35.2 242.3984375)scale(0.14 -0.14)">
       <use transform="translate(0.0 0.546875)" xlink:href="#BitstreamVeraSans-Roman-31"/>
       <use transform="translate(63.623046875 0.546875)" xlink:href="#BitstreamVeraSans-Roman-30"/>
       <use transform="translate(127.24609375 53.046875)scale(0.7)" xlink:href="#BitstreamVeraSans-Roman-30"/>
      </g>
     </g>
    </g>
    <g id="ytick_2">
     <g id="line2d_78">
      <g>
       <use style="stroke:#000000;stroke-width:0.5;" x="66.22" xlink:href="#m728421d6d4" y="182.02"/>
      </g>
     </g>
     <g id="line2d_79">
      <g>
       <use style="stroke:#000000;stroke-width:0.5;" x="401.02" xlink:href="#mcb0005524f" y="182.02"/>
      </g>
     </g>
     <g id="text_8">
      <!-- $\mathdefault{10^{1}}$ -->
      <g transform="translate(35.2 186.5284375)scale(0.14 -0.14)">
       <use transform="translate(0.0 0.465625)" xlink:href="#BitstreamVeraSans-Roman-31"/>
       <use transform="translate(63.623046875 0.465625)" xlink:href="#BitstreamVeraSans-Roman-30"/>
       <use transform="translate(127.24609375 52.965625)scale(0.7)" xlink:href="#BitstreamVeraSans-Roman-31"/>
      </g>
     </g>
    </g>
    <g id="ytick_3">
     <g id="line2d_80">
      <g>
       <use style="stroke:#000000;stroke-width:0.5;" x="66.22" xlink:href="#m728421d6d4" y="126.22"/>
      </g>
     </g>
     <g id="line2d_81">
      <g>
       <use style="stroke:#000000;stroke-width:0.5;" x="401.02" xlink:href="#mcb0005524f" y="126.22"/>
      </g>
     </g>
     <g id="text_9">
      <!-- $\mathdefault{10^{2}}$ -->
      <g transform="translate(35.2 130.7984375)scale(0.14 -0.14)">
       <use transform="translate(0.0 0.546875)" xlink:href="#BitstreamVeraSans-Roman-31"/>
       <use transform="translate(63.623046875 0.546875)" xlink:href="#BitstreamVeraSans-Roman-30"/>
       <use transform="translate(127.24609375 53.046875)scale(0.7)" xlink:href="#BitstreamVeraSans-Roman-32"/>
      </g>
     </g>
    </g>
    <g id="ytick_4">
     <g id="line2d_82">
      <g>
       <use style="stroke:#000000;stroke-width:0.5;" x="66.22" xlink:href="#m728421d6d4" y="70.42"/>
      </g>
     </g>
     <g id="line2d_83">
      <g>
       <use style="stroke:#000000;stroke-width:0.5;" x="401.02" xlink:href="#mcb0005524f" y="70.42"/>
      </g>
     </g>
     <g id="text_10">
      <!-- $\mathdefault{10^{3}}$ -->
      <g transform="translate(35.2 74.9984375)scale(0.14 -0.14)">
       <use transform="translate(0.0 0.546875)" xlink:href="#BitstreamVeraSans-Roman-31"/>
       <use transform="translate(63.623046875 0.546875)" xlink:href="#BitstreamVeraSans-Roman-30"/>
       <use transform="translate(127.24609375 53.046875)scale(0.7)" xlink:href="#BitstreamVeraSans-Roman-33"/>
      </g>
     </g>
    </g>
    <g id="ytick_5">
     <g id="line2d_84">
      <g>
       <use style="stroke:#000000;stroke-width:0.5;" x="66.22" xlink:href="#m728421d6d4" y="14.62"/>
      </g>
     </g>
     <g id="line2d_85">
      <g>
       <use style="stroke:#000000;stroke-width:0.5;" x="401.02" xlink:href="#mcb0005524f" y="14.62"/>
      </g>
     </g>
     <g id="text_11">
      <!-- $\mathdefault{10^{4}}$ -->
      <g transform="translate(35.2 19.1284375)scale(0.14 -0.14)">
       <use transform="translate(0.0 0.465625)" xlink:href="#BitstreamVeraSans-Roman-31"/>
       <use transform="translate(63.623046875 0.465625)" xlink:href="#BitstreamVeraSans-Roman-30"/>
       <use transform="translate(127.24609375 52.965625)scale(0.7)" xlink:href="#BitstreamVeraSans-Roman-34"/>
      </g>
     </g>
    </g>
    <g id="ytick_6">
     <g id="line2d_86">
      <defs>
       <path d="
M0 0
L2 0" id="mf0c55a9a47" style="stroke:#000000;stroke-width:0.5;"/>
      </defs>
      <g>
       <use style="stroke:#000000;stroke-width:0.5;" x="66.22" xlink:href="#mf0c55a9a47" y="221.022526242"/>
      </g>
     </g>
     <g id="line2d_87">
      <defs>
       <path d="
M0 0
L-2 0" id="ma4f294b3af" style="stroke:#000000;stroke-width:0.5;"/>
      </defs>
      <g>
       <use style="stroke:#000000;stroke-width:0.5;" x="401.02" xlink:href="#ma4f294b3af" y="221.022526242"/>
      </g>
     </g>
    </g>
    <g id="ytick_7">
     <g id="line2d_88">
      <g>
       <use style="stroke:#000000;stroke-width:0.5;" x="66.22" xlink:href="#mf0c55a9a47" y="211.196633987"/>
      </g>
     </g>
     <g id="line2d_89">
      <g>
       <use style="stroke:#000000;stroke-width:0.5;" x="401.02" xlink:href="#ma4f294b3af" y="211.196633987"/>
      </g>
     </g>
    </g>
    <g id="ytick_8">
     <g id="line2d_90">
      <g>
       <use style="stroke:#000000;stroke-width:0.5;" x="66.22" xlink:href="#mf0c55a9a47" y="204.225052484"/>
      </g>
     </g>
     <g id="line2d_91">
      <g>
       <use style="stroke:#000000;stroke-width:0.5;" x="401.02" xlink:href="#ma4f294b3af" y="204.225052484"/>
      </g>
     </g>
    </g>
    <g id="ytick_9">
     <g id="line2d_92">
      <g>
       <use style="stroke:#000000;stroke-width:0.5;" x="66.22" xlink:href="#mf0c55a9a47" y="198.817473758"/>
      </g>
     </g>
     <g id="line2d_93">
      <g>
       <use style="stroke:#000000;stroke-width:0.5;" x="401.02" xlink:href="#ma4f294b3af" y="198.817473758"/>
      </g>
     </g>
    </g>
    <g id="ytick_10">
     <g id="line2d_94">
      <g>
       <use style="stroke:#000000;stroke-width:0.5;" x="66.22" xlink:href="#mf0c55a9a47" y="194.399160229"/>
      </g>
     </g>
     <g id="line2d_95">
      <g>
       <use style="stroke:#000000;stroke-width:0.5;" x="401.02" xlink:href="#ma4f294b3af" y="194.399160229"/>
      </g>
     </g>
    </g>
    <g id="ytick_11">
     <g id="line2d_96">
      <g>
       <use style="stroke:#000000;stroke-width:0.5;" x="66.22" xlink:href="#mf0c55a9a47" y="190.663529367"/>
      </g>
     </g>
     <g id="line2d_97">
      <g>
       <use style="stroke:#000000;stroke-width:0.5;" x="401.02" xlink:href="#ma4f294b3af" y="190.663529367"/>
      </g>
     </g>
    </g>
    <g id="ytick_12">
     <g id="line2d_98">
      <g>
       <use style="stroke:#000000;stroke-width:0.5;" x="66.22" xlink:href="#mf0c55a9a47" y="187.427578726"/>
      </g>
     </g>
     <g id="line2d_99">
      <g>
       <use style="stroke:#000000;stroke-width:0.5;" x="401.02" xlink:href="#ma4f294b3af" y="187.427578726"/>
      </g>
     </g>
    </g>
    <g id="ytick_13">
     <g id="line2d_100">
      <g>
       <use style="stroke:#000000;stroke-width:0.5;" x="66.22" xlink:href="#mf0c55a9a47" y="184.573267973"/>
      </g>
     </g>
     <g id="line2d_101">
      <g>
       <use style="stroke:#000000;stroke-width:0.5;" x="401.02" xlink:href="#ma4f294b3af" y="184.573267973"/>
      </g>
     </g>
    </g>
    <g id="ytick_14">
     <g id="line2d_102">
      <g>
       <use style="stroke:#000000;stroke-width:0.5;" x="66.22" xlink:href="#mf0c55a9a47" y="165.222526242"/>
      </g>
     </g>
     <g id="line2d_103">
      <g>
       <use style="stroke:#000000;stroke-width:0.5;" x="401.02" xlink:href="#ma4f294b3af" y="165.222526242"/>
      </g>
     </g>
    </g>
    <g id="ytick_15">
     <g id="line2d_104">
      <g>
       <use style="stroke:#000000;stroke-width:0.5;" x="66.22" xlink:href="#mf0c55a9a47" y="155.396633987"/>
      </g>
     </g>
     <g id="line2d_105">
      <g>
       <use style="stroke:#000000;stroke-width:0.5;" x="401.02" xlink:href="#ma4f294b3af" y="155.396633987"/>
      </g>
     </g>
    </g>
    <g id="ytick_16">
     <g id="line2d_106">
      <g>
       <use style="stroke:#000000;stroke-width:0.5;" x="66.22" xlink:href="#mf0c55a9a47" y="148.425052484"/>
      </g>
     </g>
     <g id="line2d_107">
      <g>
       <use style="stroke:#000000;stroke-width:0.5;" x="401.02" xlink:href="#ma4f294b3af" y="148.425052484"/>
      </g>
     </g>
    </g>
    <g id="ytick_17">
     <g id="line2d_108">
      <g>
       <use style="stroke:#000000;stroke-width:0.5;" x="66.22" xlink:href="#mf0c55a9a47" y="143.017473758"/>
      </g>
     </g>
     <g id="line2d_109">
      <g>
       <use style="stroke:#000000;stroke-width:0.5;" x="401.02" xlink:href="#ma4f294b3af" y="143.017473758"/>
      </g>
     </g>
    </g>
    <g id="ytick_18">
     <g id="line2d_110">
      <g>
       <use style="stroke:#000000;stroke-width:0.5;" x="66.22" xlink:href="#mf0c55a9a47" y="138.599160229"/>
      </g>
     </g>
     <g id="line2d_111">
      <g>
       <use style="stroke:#000000;stroke-width:0.5;" x="401.02" xlink:href="#ma4f294b3af" y="138.599160229"/>
      </g>
     </g>
    </g>
    <g id="ytick_19">
     <g id="line2d_112">
      <g>
       <use style="stroke:#000000;stroke-width:0.5;" x="66.22" xlink:href="#mf0c55a9a47" y="134.863529367"/>
      </g>
     </g>
     <g id="line2d_113">
      <g>
       <use style="stroke:#000000;stroke-width:0.5;" x="401.02" xlink:href="#ma4f294b3af" y="134.863529367"/>
      </g>
     </g>
    </g>
    <g id="ytick_20">
     <g id="line2d_114">
      <g>
       <use style="stroke:#000000;stroke-width:0.5;" x="66.22" xlink:href="#mf0c55a9a47" y="131.627578726"/>
      </g>
     </g>
     <g id="line2d_115">
      <g>
       <use style="stroke:#000000;stroke-width:0.5;" x="401.02" xlink:href="#ma4f294b3af" y="131.627578726"/>
      </g>
     </g>
    </g>
    <g id="ytick_21">
     <g id="line2d_116">
      <g>
       <use style="stroke:#000000;stroke-width:0.5;" x="66.22" xlink:href="#mf0c55a9a47" y="128.773267973"/>
      </g>
     </g>
     <g id="line2d_117">
      <g>
       <use style="stroke:#000000;stroke-width:0.5;" x="401.02" xlink:href="#ma4f294b3af" y="128.773267973"/>
      </g>
     </g>
    </g>
    <g id="ytick_22">
     <g id="line2d_118">
      <g>
       <use style="stroke:#000000;stroke-width:0.5;" x="66.22" xlink:href="#mf0c55a9a47" y="109.422526242"/>
      </g>
     </g>
     <g id="line2d_119">
      <g>
       <use style="stroke:#000000;stroke-width:0.5;" x="401.02" xlink:href="#ma4f294b3af" y="109.422526242"/>
      </g>
     </g>
    </g>
    <g id="ytick_23">
     <g id="line2d_120">
      <g>
       <use style="stroke:#000000;stroke-width:0.5;" x="66.22" xlink:href="#mf0c55a9a47" y="99.5966339866"/>
      </g>
     </g>
     <g id="line2d_121">
      <g>
       <use style="stroke:#000000;stroke-width:0.5;" x="401.02" xlink:href="#ma4f294b3af" y="99.5966339866"/>
      </g>
     </g>
    </g>
    <g id="ytick_24">
     <g id="line2d_122">
      <g>
       <use style="stroke:#000000;stroke-width:0.5;" x="66.22" xlink:href="#mf0c55a9a47" y="92.6250524839"/>
      </g>
     </g>
     <g id="line2d_123">
      <g>
       <use style="stroke:#000000;stroke-width:0.5;" x="401.02" xlink:href="#ma4f294b3af" y="92.6250524839"/>
      </g>
     </g>
    </g>
    <g id="ytick_25">
     <g id="line2d_124">
      <g>
       <use style="stroke:#000000;stroke-width:0.5;" x="66.22" xlink:href="#mf0c55a9a47" y="87.2174737581"/>
      </g>
     </g>
     <g id="line2d_125">
      <g>
       <use style="stroke:#000000;stroke-width:0.5;" x="401.02" xlink:href="#ma4f294b3af" y="87.2174737581"/>
      </g>
     </g>
    </g>
    <g id="ytick_26">
     <g id="line2d_126">
      <g>
       <use style="stroke:#000000;stroke-width:0.5;" x="66.22" xlink:href="#mf0c55a9a47" y="82.7991602286"/>
      </g>
     </g>
     <g id="line2d_127">
      <g>
       <use style="stroke:#000000;stroke-width:0.5;" x="401.02" xlink:href="#ma4f294b3af" y="82.7991602286"/>
      </g>
     </g>
    </g>
    <g id="ytick_27">
     <g id="line2d_128">
      <g>
       <use style="stroke:#000000;stroke-width:0.5;" x="66.22" xlink:href="#mf0c55a9a47" y="79.0635293672"/>
      </g>
     </g>
     <g id="line2d_129">
      <g>
       <use style="stroke:#000000;stroke-width:0.5;" x="401.02" xlink:href="#ma4f294b3af" y="79.0635293672"/>
      </g>
     </g>
    </g>
    <g id="ytick_28">
     <g id="line2d_130">
      <g>
       <use style="stroke:#000000;stroke-width:0.5;" x="66.22" xlink:href="#mf0c55a9a47" y="75.8275787258"/>
      </g>
     </g>
     <g id="line2d_131">
      <g>
       <use style="stroke:#000000;stroke-width:0.5;" x="401.02" xlink:href="#ma4f294b3af" y="75.8275787258"/>
      </g>
     </g>
    </g>
    <g id="ytick_29">
     <g id="line2d_132">
      <g>
       <use style="stroke:#000000;stroke-width:0.5;" x="66.22" xlink:href="#mf0c55a9a47" y="72.9732679733"/>
      </g>
     </g>
     <g id="line2d_133">
      <g>
       <use style="stroke:#000000;stroke-width:0.5;" x="401.02" xlink:href="#ma4f294b3af" y="72.9732679733"/>
      </g>
     </g>
    </g>
    <g id="ytick_30">
     <g id="line2d_134">
      <g>
       <use style="stroke:#000000;stroke-width:0.5;" x="66.22" xlink:href="#mf0c55a9a47" y="53.6225262419"/>
      </g>
     </g>
     <g id="line2d_135">
      <g>
       <use style="stroke:#000000;stroke-width:0.5;" x="401.02" xlink:href="#ma4f294b3af" y="53.6225262419"/>
      </g>
     </g>
    </g>
    <g id="ytick_31">
     <g id="line2d_136">
      <g>
       <use style="stroke:#000000;stroke-width:0.5;" x="66.22" xlink:href="#mf0c55a9a47" y="43.7966339866"/>
      </g>
     </g>
     <g id="line2d_137">
      <g>
       <use style="stroke:#000000;stroke-width:0.5;" x="401.02" xlink:href="#ma4f294b3af" y="43.7966339866"/>
      </g>
     </g>
    </g>
    <g id="ytick_32">
     <g id="line2d_138">
      <g>
       <use style="stroke:#000000;stroke-width:0.5;" x="66.22" xlink:href="#mf0c55a9a47" y="36.8250524839"/>
      </g>
     </g>
     <g id="line2d_139">
      <g>
       <use style="stroke:#000000;stroke-width:0.5;" x="401.02" xlink:href="#ma4f294b3af" y="36.8250524839"/>
      </g>
     </g>
    </g>
    <g id="ytick_33">
     <g id="line2d_140">
      <g>
       <use style="stroke:#000000;stroke-width:0.5;" x="66.22" xlink:href="#mf0c55a9a47" y="31.4174737581"/>
      </g>
     </g>
     <g id="line2d_141">
      <g>
       <use style="stroke:#000000;stroke-width:0.5;" x="401.02" xlink:href="#ma4f294b3af" y="31.4174737581"/>
      </g>
     </g>
    </g>
    <g id="ytick_34">
     <g id="line2d_142">
      <g>
       <use style="stroke:#000000;stroke-width:0.5;" x="66.22" xlink:href="#mf0c55a9a47" y="26.9991602286"/>
      </g>
     </g>
     <g id="line2d_143">
      <g>
       <use style="stroke:#000000;stroke-width:0.5;" x="401.02" xlink:href="#ma4f294b3af" y="26.9991602286"/>
      </g>
     </g>
    </g>
    <g id="ytick_35">
     <g id="line2d_144">
      <g>
       <use style="stroke:#000000;stroke-width:0.5;" x="66.22" xlink:href="#mf0c55a9a47" y="23.2635293672"/>
      </g>
     </g>
     <g id="line2d_145">
      <g>
       <use style="stroke:#000000;stroke-width:0.5;" x="401.02" xlink:href="#ma4f294b3af" y="23.2635293672"/>
      </g>
     </g>
    </g>
    <g id="ytick_36">
     <g id="line2d_146">
      <g>
       <use style="stroke:#000000;stroke-width:0.5;" x="66.22" xlink:href="#mf0c55a9a47" y="20.0275787258"/>
      </g>
     </g>
     <g id="line2d_147">
      <g>
       <use style="stroke:#000000;stroke-width:0.5;" x="401.02" xlink:href="#ma4f294b3af" y="20.0275787258"/>
      </g>
     </g>
    </g>
    <g id="ytick_37">
     <g id="line2d_148">
      <g>
       <use style="stroke:#000000;stroke-width:0.5;" x="66.22" xlink:href="#mf0c55a9a47" y="17.1732679733"/>
      </g>
     </g>
     <g id="line2d_149">
      <g>
       <use style="stroke:#000000;stroke-width:0.5;" x="401.02" xlink:href="#ma4f294b3af" y="17.1732679733"/>
      </g>
     </g>
    </g>
    <g id="text_12">
     <!-- $m_{\mathrm{opt}}(F)$ -->
     <defs>
      <path d="
M7.71875 1.70312
Q7.71875 2.29688 7.8125 2.59375
L15.2812 32.4219
Q16.0156 35.2031 16.0156 37.3125
Q16.0156 41.6094 13.0938 41.6094
Q9.96875 41.6094 8.45312 37.8594
Q6.9375 34.125 5.51562 28.4219
Q5.51562 28.125 5.21875 27.9531
Q4.9375 27.7812 4.6875 27.7812
L3.51562 27.7812
Q3.17188 27.7812 2.92188 28.1406
Q2.6875 28.5156 2.6875 28.8125
Q3.76562 33.1562 4.76562 36.1719
Q5.76562 39.2031 7.89062 41.6875
Q10.0156 44.1875 13.1875 44.1875
Q16.9375 44.1875 19.8125 41.8125
Q22.7031 39.4531 22.7031 35.7969
Q25.6875 39.7031 29.6875 41.9375
Q33.6875 44.1875 38.1875 44.1875
Q42.9219 44.1875 46.3594 41.7656
Q49.8125 39.3594 49.8125 34.9062
Q52.875 39.2656 57 41.7188
Q61.1406 44.1875 66.0156 44.1875
Q71.1875 44.1875 74.3281 41.375
Q77.4844 38.5781 77.4844 33.4062
Q77.4844 29.2969 75.6562 23.4844
Q73.8281 17.6719 71.0938 10.5
Q69.6719 7.03125 69.6719 4.5
Q69.6719 1.51562 72.0156 1.51562
Q75.9219 1.51562 78.5156 5.70312
Q81.1094 9.90625 82.1719 14.7031
Q82.4688 15.2812 83.0156 15.2812
L84.1875 15.2812
Q84.5781 15.2812 84.8438 15.0156
Q85.1094 14.75 85.1094 14.4062
Q85.1094 14.3125 85.0156 14.1094
Q83.6406 8.45312 80.25 3.65625
Q76.8594 -1.125 71.7812 -1.125
Q68.2656 -1.125 65.7656 1.29688
Q63.2812 3.71875 63.2812 7.17188
Q63.2812 8.9375 64.1094 11.0781
Q66.9375 18.6094 68.8125 24.5156
Q70.7031 30.4219 70.7031 34.9062
Q70.7031 37.7031 69.5781 39.6562
Q68.4531 41.6094 65.8281 41.6094
Q60.3594 41.6094 56.3438 38.25
Q52.3438 34.9062 49.4219 29.3906
Q49.2188 28.4219 49.125 27.875
L42.6719 2.20312
Q42.3281 0.828125 41.125 -0.140625
Q39.9375 -1.125 38.4844 -1.125
Q37.3125 -1.125 36.4062 -0.34375
Q35.5 0.4375 35.5 1.70312
Q35.5 2.29688 35.5938 2.59375
L42 28.0781
Q43.0156 32.1719 43.0156 34.9062
Q43.0156 37.7031 41.8594 39.6562
Q40.7188 41.6094 37.9844 41.6094
Q34.3281 41.6094 31.25 39.9844
Q28.1719 38.375 25.875 35.7188
Q23.5781 33.0625 21.6875 29.3906
L14.8906 2.20312
Q14.5469 0.828125 13.3438 -0.140625
Q12.1562 -1.125 10.6875 -1.125
Q9.46875 -1.125 8.59375 -0.34375
Q7.71875 0.4375 7.71875 1.70312" id="Cmmi10-6d"/>
      <path d="
M31 -24.8125
Q25.4375 -20.4062 21.4062 -14.7188
Q17.3906 -9.03125 14.8125 -2.57812
Q12.25 3.85938 10.9844 10.8906
Q9.71875 17.9219 9.71875 25
Q9.71875 32.1719 10.9844 39.2031
Q12.25 46.2344 14.8594 52.7344
Q17.4844 59.2344 21.5312 64.8906
Q25.5938 70.5625 31 74.8125
Q31 75 31.5 75
L32.4219 75
Q32.7188 75 32.9531 74.7344
Q33.2031 74.4688 33.2031 74.125
Q33.2031 73.6875 33.0156 73.4844
Q28.125 68.7031 24.875 63.2344
Q21.625 57.7656 19.6406 51.5781
Q17.6719 45.4062 16.7969 38.7812
Q15.9219 32.1719 15.9219 25
Q15.9219 -6.78125 32.9062 -23.2969
Q33.2031 -23.5781 33.2031 -24.125
Q33.2031 -24.3594 32.9375 -24.6719
Q32.6719 -25 32.4219 -25
L31.5 -25
Q31 -25 31 -24.8125" id="Cmr10-28"/>
      <path d="
M6.5 -25
Q5.60938 -25 5.60938 -24.125
Q5.60938 -23.6875 5.8125 -23.4844
Q22.9062 -6.78125 22.9062 25
Q22.9062 56.7812 6 73.2969
Q5.60938 73.5312 5.60938 74.125
Q5.60938 74.4688 5.875 74.7344
Q6.15625 75 6.5 75
L7.42188 75
Q7.71875 75 7.90625 74.8125
Q15.0938 69.1406 19.875 61.0312
Q24.6562 52.9375 26.875 43.75
Q29.1094 34.5781 29.1094 25
Q29.1094 17.9219 27.9062 11.0625
Q26.7031 4.20312 24.0938 -2.45312
Q21.4844 -9.125 17.4844 -14.7656
Q13.4844 -20.4062 7.90625 -24.8125
Q7.71875 -25 7.42188 -25
z
" id="Cmr10-29"/>
      <path d="
M25 -1.125
Q19 -1.125 13.8594 1.92188
Q8.73438 4.98438 5.75 10.1094
Q2.78125 15.2344 2.78125 21.2969
Q2.78125 25.875 4.42188 30.125
Q6.0625 34.375 9.10938 37.7188
Q12.1562 41.0625 16.2031 42.9375
Q20.2656 44.8281 25 44.8281
Q31.1562 44.8281 36.2031 41.5781
Q41.2656 38.3281 44.1875 32.875
Q47.125 27.4375 47.125 21.2969
Q47.125 15.2812 44.1406 10.125
Q41.1562 4.98438 36.0469 1.92188
Q30.9531 -1.125 25 -1.125
M25 1.8125
Q33.0156 1.8125 35.6875 7.60938
Q38.375 13.4219 38.375 22.4062
Q38.375 27.4375 37.8438 30.7344
Q37.3125 34.0312 35.5 36.7188
Q34.375 38.375 32.6406 39.625
Q30.9062 40.875 28.9688 41.5312
Q27.0469 42.1875 25 42.1875
Q21.875 42.1875 19.0625 40.7656
Q16.2656 39.3594 14.4062 36.7188
Q12.5469 33.8906 12.0312 30.4844
Q11.5312 27.0938 11.5312 22.4062
Q11.5312 16.7969 12.5 12.3281
Q13.4844 7.85938 16.4375 4.82812
Q19.3906 1.8125 25 1.8125" id="Cmr10-6f"/>
      <path d="
M10.2031 12.0156
L10.2031 39.5938
L1.90625 39.5938
L1.90625 42.1875
Q8.45312 42.1875 11.5156 48.2812
Q14.5938 54.3906 14.5938 61.5312
L17.4844 61.5312
L17.4844 43.1094
L31.5938 43.1094
L31.5938 39.5938
L17.4844 39.5938
L17.4844 12.2031
Q17.4844 8.0625 18.875 4.9375
Q20.2656 1.8125 23.875 1.8125
Q27.2969 1.8125 28.8125 5.10938
Q30.3281 8.40625 30.3281 12.2031
L30.3281 18.1094
L33.2031 18.1094
L33.2031 12.0156
Q33.2031 8.89062 32.0469 5.82812
Q30.9062 2.78125 28.6562 0.828125
Q26.4219 -1.125 23.1875 -1.125
Q17.1875 -1.125 13.6875 2.46875
Q10.2031 6.0625 10.2031 12.0156" id="Cmr10-74"/>
      <path d="
M2.59375 -19.3906
L2.59375 -15.9219
Q6 -15.9219 8.20312 -15.3281
Q10.4062 -14.75 10.4062 -12.7031
L10.4062 35.5
Q10.4062 38.2344 8.45312 38.9062
Q6.5 39.5938 2.59375 39.5938
L2.59375 43.1094
L17.3906 44.1875
L17.3906 37.9844
Q20.125 41.0156 23.75 42.5938
Q27.3906 44.1875 31.5 44.1875
Q37.4062 44.1875 42.1406 40.9844
Q46.875 37.7969 49.5312 32.5938
Q52.2031 27.3906 52.2031 21.5781
Q52.2031 15.5312 49.25 10.2969
Q46.2969 5.07812 41.1875 1.96875
Q36.0781 -1.125 29.9844 -1.125
Q22.7031 -1.125 17.6719 4.78125
L17.6719 -12.7031
Q17.6719 -14.75 19.8906 -15.3281
Q22.125 -15.9219 25.4844 -15.9219
L25.4844 -19.3906
z

M17.6719 9.71875
Q19.4375 6.15625 22.5625 3.82812
Q25.6875 1.51562 29.3906 1.51562
Q32.8594 1.51562 35.5156 3.35938
Q38.1875 5.21875 39.9844 8.34375
Q41.7969 11.4688 42.6406 14.9062
Q43.5 18.3594 43.5 21.5781
Q43.5 25.5938 42.0625 30.25
Q40.625 34.9062 37.6719 38.1094
Q34.7188 41.3125 30.5156 41.3125
Q26.4688 41.3125 23.0625 39.2344
Q19.6719 37.1562 17.6719 33.5938
z
" id="Cmr10-70"/>
     </defs>
     <g transform="translate(22.2 159.32)rotate(-90.0)scale(0.2 -0.2)">
      <use xlink:href="#Cmmi10-6d"/>
      <use transform="translate(87.79296875 -25.509375)scale(0.7)" xlink:href="#Cmr10-6f"/>
      <use transform="translate(122.79296875 -25.509375)scale(0.7)" xlink:href="#Cmr10-70"/>
      <use transform="translate(161.655273438 -25.509375)scale(0.7)" xlink:href="#Cmr10-74"/>
      <use transform="translate(188.828125 0.0)" xlink:href="#Cmr10-28"/>
      <use transform="translate(227.646484375 0.0)" xlink:href="#Cmmi10-46"/>
      <use transform="translate(291.953125 0.0)" xlink:href="#Cmr10-29"/>
     </g>
    </g>
   </g>
   <g id="patch_3">
    <path d="
M66.22 14.62
L401.02 14.62" style="fill:none;stroke:#000000;"/>
   </g>
   <g id="patch_4">
    <path d="
M401.02 237.82
L401.02 14.62" style="fill:none;stroke:#000000;"/>
   </g>
   <g id="patch_5">
    <path d="
M66.22 237.82
L401.02 237.82" style="fill:none;stroke:#000000;"/>
   </g>
   <g id="patch_6">
    <path d="
M66.22 237.82
L66.22 14.62" style="fill:none;stroke:#000000;"/>
   </g>
  </g>
 </g>
 <defs>
  <clipPath id="p0ddfe5d0b5">
   <rect height="223.2" width="334.8" x="66.22" y="14.62"/>
  </clipPath>
 </defs>
</svg>
